<svg xmlns="http://www.w3.org/2000/svg" id="export" class="canvas" preserveAspectRatio="xMidYMid meet" style="" width="1023" height="971"><rect id="background" fill="#fff" pointer-events="all" width="1023" height="971"/><g id="origin" transform="translate(64.1, 44.1) scale(1)"><g id="clusters" class="clusters"/><g id="edge-paths" class="edge-paths" style="pointer-events: none;"><defs><marker id="arrowhead" viewBox="0 0 10 10" refX="9" refY="5" markerUnits="strokeWidth" markerWidth="8" markerHeight="6" orient="auto" style="fill: rgb(0, 0, 0);"><path d="M 0 0 L 10 5 L 0 10 L 4 5 z" style="stroke-width: 1;"/></marker><marker id="arrowhead-select" viewBox="0 0 10 10" refX="9" refY="5" markerUnits="strokeWidth" markerWidth="8" markerHeight="6" orient="auto" style="fill: rgba(220, 0, 0, 0.9);"><path d="M 0 0 L 10 5 L 0 10 L 4 5 z" style="stroke-width: 1;"/></marker><marker id="arrowhead-hover" viewBox="0 0 10 10" refX="9" refY="5" markerUnits="strokeWidth" markerWidth="8" markerHeight="6" orient="auto" style="fill: rgba(220, 0, 0, 0.9);"><path d="M 0 0 L 10 5 L 0 10 L 4 5 z" style="stroke-width: 1;"/></marker></defs><path id="edge-%x.1" class="edge-path" d="M395.37425231933594,15.724526101627252L389.4451281229655,18.103771751356042C383.51600392659503,20.483017401084833,371.6577555338542,25.241508700542415,365.7286313374837,29.287421016937873C359.7995071411133,33.333333333333336,359.7995071411133,36.666666666666664,359.7995071411133,40C359.7995071411133,43.333333333333336,359.7995071411133,46.666666666666664,359.7995071411133,53.166666666666664C359.7995071411133,59.666666666666664,359.7995071411133,69.33333333333333,359.7995071411133,79C359.7995071411133,88.66666666666667,359.7995071411133,98.33333333333333,359.7995071411133,104.83333333333333C359.7995071411133,111.33333333333333,359.7995071411133,114.66666666666667,359.7995071411133,116.33333333333333L359.7995071411133,118" style="stroke: rgb(0, 0, 0); stroke-width: 1px; fill: none; marker-end: url(&quot;#arrowhead&quot;);"/><path id="edge-%x.1" class="edge-path" d="M395.37425231933594,10.855964882360471L342.1980781555176,14.04663740196706C289.0219039916992,17.237309921573647,182.6695556640625,23.618654960786824,129.49338150024414,28.475994147060078C76.31720733642578,33.333333333333336,76.31720733642578,36.666666666666664,76.31720733642578,40C76.31720733642578,43.333333333333336,76.31720733642578,46.666666666666664,76.31720733642578,53.166666666666664C76.31720733642578,59.666666666666664,76.31720733642578,69.33333333333333,76.31720733642578,79C76.31720733642578,88.66666666666667,76.31720733642578,98.33333333333333,76.31720733642578,108C76.31720733642578,117.66666666666667,76.31720733642578,127.33333333333333,76.31720733642578,137C76.31720733642578,146.66666666666666,76.31720733642578,156.33333333333334,76.31720733642578,164.5C76.31720733642578,172.66666666666666,76.31720733642578,179.33333333333334,76.31720733642578,186C76.31720733642578,192.66666666666666,76.31720733642578,199.33333333333334,76.31720733642578,216.5C76.31720733642578,233.66666666666666,76.31720733642578,261.3333333333333,76.31720733642578,289C76.31720733642578,316.6666666666667,76.31720733642578,344.3333333333333,76.31720733642578,363C76.31720733642578,381.6666666666667,76.31720733642578,391.3333333333333,76.31720733642578,401C76.31720733642578,410.6666666666667,76.31720733642578,420.3333333333333,76.31720733642578,430C76.31720733642578,439.6666666666667,76.31720733642578,449.3333333333333,76.31720733642578,459C76.31720733642578,468.6666666666667,76.31720733642578,478.3333333333333,76.31720733642578,486.5C76.31720733642578,494.6666666666667,76.31720733642578,501.3333333333333,76.31720733642578,508C76.31720733642578,514.6666666666666,76.31720733642578,521.3333333333334,76.31720733642578,527.3333333333334C76.31720733642578,533.3333333333334,76.31720733642578,538.6666666666666,76.31720733642578,541.3333333333334L76.31720733642578,544" style="stroke: rgb(0, 0, 0); stroke-width: 1px; fill: none; marker-end: url(&quot;#arrowhead&quot;);"/><path id="edge-%x.1" class="edge-path" d="M423.90550231933594,15.724526101627252L429.83462651570636,18.103771751356042C435.76375071207684,20.483017401084833,447.6219991048177,25.241508700542415,453.55112330118817,29.287421016937873C459.4802474975586,33.333333333333336,459.4802474975586,36.666666666666664,459.4802474975586,40C459.4802474975586,43.333333333333336,459.4802474975586,46.666666666666664,459.4802474975586,50C459.4802474975586,53.333333333333336,459.4802474975586,56.666666666666664,459.4802474975586,58.333333333333336L459.4802474975586,60" style="stroke: rgb(0, 0, 0); stroke-width: 1px; fill: none; marker-end: url(&quot;#arrowhead&quot;);"/><path id="edge-%x.1" class="edge-path" d="M423.90550231933594,11.054417341801647L466.62586975097656,14.212014451501373C509.3462371826172,17.369611561201097,594.7869720458984,23.684805780600552,637.5073394775391,28.50906955696694C680.2277069091797,33.333333333333336,680.2277069091797,36.666666666666664,680.2277069091797,40C680.2277069091797,43.333333333333336,680.2277069091797,46.666666666666664,680.2277069091797,50C680.2277069091797,53.333333333333336,680.2277069091797,56.666666666666664,680.2277069091797,58.333333333333336L680.2277069091797,60" style="stroke: rgb(0, 0, 0); stroke-width: 1px; fill: none; marker-end: url(&quot;#arrowhead&quot;);"/><path id="edge-%x.1" class="edge-path" d="M423.90550231933594,11.53659892435347L452.47421900431317,14.613832436961225C481.04293568929035,17.69106594956898,538.1803690592448,23.84553297478449,566.749085744222,28.589433154058913C595.3178024291992,33.333333333333336,595.3178024291992,36.666666666666664,595.3178024291992,40C595.3178024291992,43.333333333333336,595.3178024291992,46.666666666666664,595.3178024291992,53.166666666666664C595.3178024291992,59.666666666666664,595.3178024291992,69.33333333333333,595.3178024291992,79C595.3178024291992,88.66666666666667,595.3178024291992,98.33333333333333,595.3178024291992,108C595.3178024291992,117.66666666666667,595.3178024291992,127.33333333333333,595.3178024291992,137C595.3178024291992,146.66666666666666,595.3178024291992,156.33333333333334,595.3178024291992,164.5C595.3178024291992,172.66666666666666,595.3178024291992,179.33333333333334,595.3178024291992,186C595.3178024291992,192.66666666666666,595.3178024291992,199.33333333333334,595.3178024291992,204.33333333333334C595.3178024291992,209.33333333333334,595.3178024291992,212.66666666666666,595.3178024291992,214.33333333333334L595.3178024291992,216" style="stroke: rgb(0, 0, 0); stroke-width: 1px; fill: none; marker-end: url(&quot;#arrowhead&quot;);"/><path id="edge-%x.1" class="edge-path" d="M423.90550231933594,10.706620174744723L488.8230094909668,13.922183478953935C553.7405166625977,17.13774678316315,683.5755310058594,23.568873391581576,748.4930381774902,28.451103362457456C813.4105453491211,33.333333333333336,813.4105453491211,36.666666666666664,813.4105453491211,40C813.4105453491211,43.333333333333336,813.4105453491211,46.666666666666664,813.4105453491211,53.166666666666664C813.4105453491211,59.666666666666664,813.4105453491211,69.33333333333333,813.4105453491211,79C813.4105453491211,88.66666666666667,813.4105453491211,98.33333333333333,813.4105453491211,108C813.4105453491211,117.66666666666667,813.4105453491211,127.33333333333333,813.4105453491211,137C813.4105453491211,146.66666666666666,813.4105453491211,156.33333333333334,813.4105453491211,164.5C813.4105453491211,172.66666666666666,813.4105453491211,179.33333333333334,813.4105453491211,186C813.4105453491211,192.66666666666666,813.4105453491211,199.33333333333334,813.4105453491211,204.33333333333334C813.4105453491211,209.33333333333334,813.4105453491211,212.66666666666666,813.4105453491211,214.33333333333334L813.4105453491211,216" style="stroke: rgb(0, 0, 0); stroke-width: 1px; fill: none; marker-end: url(&quot;#arrowhead&quot;);"/><path id="edge-%x.1" class="edge-path" d="M395.37425231933594,11.875876609674947L372.40259679158527,14.896563841395789C349.43094126383465,17.91725107311663,303.4876302083333,23.958625536558316,280.5159746805827,28.645979434945826C257.54431915283203,33.333333333333336,257.54431915283203,36.666666666666664,257.54431915283203,40C257.54431915283203,43.333333333333336,257.54431915283203,46.666666666666664,257.54431915283203,53.166666666666664C257.54431915283203,59.666666666666664,257.54431915283203,69.33333333333333,257.54431915283203,79C257.54431915283203,88.66666666666667,257.54431915283203,98.33333333333333,257.54431915283203,108C257.54431915283203,117.66666666666667,257.54431915283203,127.33333333333333,257.54431915283203,137C257.54431915283203,146.66666666666666,257.54431915283203,156.33333333333334,257.54431915283203,164.5C257.54431915283203,172.66666666666666,257.54431915283203,179.33333333333334,257.54431915283203,186C257.54431915283203,192.66666666666666,257.54431915283203,199.33333333333334,257.54431915283203,204.33333333333334C257.54431915283203,209.33333333333334,257.54431915283203,212.66666666666666,257.54431915283203,214.33333333333334L257.54431915283203,216" style="stroke: rgb(0, 0, 0); stroke-width: 1px; fill: none; marker-end: url(&quot;#arrowhead&quot;);"/><path id="edge-%x.1" class="edge-path" d="M395.37425231933594,10.664073599918513L326.1452102661133,13.886727999932093C256.9161682128906,17.109382399945677,118.45808410644531,23.554691199972837,49.229042053222656,28.444012266653086C-20,33.333333333333336,-20,36.666666666666664,-20,40C-20,43.333333333333336,-20,46.666666666666664,-20,53.166666666666664C-20,59.666666666666664,-20,69.33333333333333,-20,79C-20,88.66666666666667,-20,98.33333333333333,-20,108C-20,117.66666666666667,-20,127.33333333333333,-20,137C-20,146.66666666666666,-20,156.33333333333334,-20,164.5C-20,172.66666666666666,-20,179.33333333333334,-20,186C-20,192.66666666666666,-20,199.33333333333334,-20,216.5C-20,233.66666666666666,-20,261.3333333333333,-20,289C-20,316.6666666666667,-20,344.3333333333333,-20,363C-20,381.6666666666667,-20,391.3333333333333,-20,401C-20,410.6666666666667,-20,420.3333333333333,-20,430C-20,439.6666666666667,-20,449.3333333333333,-20,459C-20,468.6666666666667,-20,478.3333333333333,-20,486.5C-20,494.6666666666667,-20,501.3333333333333,-20,508C-20,514.6666666666666,-20,521.3333333333334,-20,530.5C-20,539.6666666666666,-20,551.3333333333334,-20,563C-20,574.6666666666666,-20,586.3333333333334,-20,597C-20,607.6666666666666,-20,617.3333333333334,-20,627C-20,636.6666666666666,-20,646.3333333333334,-20,654.5C-20,662.6666666666666,-20,669.3333333333334,-20,676C-20,682.6666666666666,-20,689.3333333333334,-20,697.5C-20,705.6666666666666,-20,715.3333333333334,-20,725C-20,734.6666666666666,-20,744.3333333333334,-20,752.5C-20,760.6666666666666,-20,767.3333333333334,-20,774C-20,780.6666666666666,-20,787.3333333333334,-9.481074015299479,793.698552885206C1.0378519694010417,800.0637724370786,22.075703938802082,806.1275448741571,32.5946299235026,809.1594310926965L43.113555908203125,812.1913173112358" style="stroke: rgb(0, 0, 0); stroke-width: 1px; fill: none; marker-end: url(&quot;#arrowhead&quot;);"/><path id="edge-%12" class="edge-path" d="M359.7995071411133,156L359.7995071411133,157.66666666666666C359.7995071411133,159.33333333333334,359.7995071411133,162.66666666666666,359.7995071411133,166C359.7995071411133,169.33333333333334,359.7995071411133,172.66666666666666,359.7995071411133,174.33333333333334L359.7995071411133,176" style="stroke: rgb(0, 0, 0); stroke-width: 1px; fill: none; marker-end: url(&quot;#arrowhead&quot;);"/><path id="edge-%b.1" class="edge-path" d="M317.61876678466797,188.4405698877602L267.0383834838867,191.3671415731335C216.45800018310547,194.2937132585068,115.29723358154297,200.1468566292534,64.71685028076172,216.90676164796002C14.136466979980469,233.66666666666666,14.136466979980469,261.3333333333333,14.136466979980469,289C14.136466979980469,316.6666666666667,14.136466979980469,344.3333333333333,14.136466979980469,363C14.136466979980469,381.6666666666667,14.136466979980469,391.3333333333333,14.136466979980469,401C14.136466979980469,410.6666666666667,14.136466979980469,420.3333333333333,14.136466979980469,430C14.136466979980469,439.6666666666667,14.136466979980469,449.3333333333333,14.136466979980469,459C14.136466979980469,468.6666666666667,14.136466979980469,478.3333333333333,14.136466979980469,486.5C14.136466979980469,494.6666666666667,14.136466979980469,501.3333333333333,14.136466979980469,508C14.136466979980469,514.6666666666666,14.136466979980469,521.3333333333334,14.136466979980469,530.5C14.136466979980469,539.6666666666666,14.136466979980469,551.3333333333334,14.136466979980469,563C14.136466979980469,574.6666666666666,14.136466979980469,586.3333333333334,14.136466979980469,597C14.136466979980469,607.6666666666666,14.136466979980469,617.3333333333334,14.136466979980469,627C14.136466979980469,636.6666666666666,14.136466979980469,646.3333333333334,14.136466979980469,652.8333333333334C14.136466979980469,659.3333333333334,14.136466979980469,662.6666666666666,14.136466979980469,664.3333333333334L14.136466979980469,666" style="stroke: rgb(0, 0, 0); stroke-width: 1px; fill: none; marker-end: url(&quot;#arrowhead&quot;);"/><path id="edge-%b.1" class="edge-path" d="M351.1268653869629,196L349.6814250946045,197.66666666666666C348.2359848022461,199.33333333333334,345.3451042175293,202.66666666666666,343.8996639251709,216.5C342.4542236328125,230.33333333333334,342.4542236328125,254.66666666666666,342.4542236328125,266.8333333333333L342.4542236328125,279" style="stroke: rgb(0, 0, 0); stroke-width: 1px; fill: none; marker-end: url(&quot;#arrowhead&quot;);"/><path id="edge-%b.1" class="edge-path" d="M401.9802474975586,188.28807218084444L456.40031305948895,191.2400601507037C510.82037862141925,194.19204812056296,619.6605097452799,200.09602406028148,674.0805753072103,215.2146786968074C728.5006408691406,230.33333333333334,728.5006408691406,254.66666666666666,728.5006408691406,266.8333333333333L728.5006408691406,279" style="stroke: rgb(0, 0, 0); stroke-width: 1px; fill: none; marker-end: url(&quot;#arrowhead&quot;);"/><path id="edge-%b.1" class="edge-path" d="M401.9802474975586,191.999747257475L418.38485590616864,194.3331227145625C434.7894643147786,196.66649817165,467.5986811319987,201.33324908582503,484.0032895406087,215.8332912095792C500.40789794921875,230.33333333333334,500.40789794921875,254.66666666666666,500.40789794921875,266.8333333333333L500.40789794921875,279" style="stroke: rgb(0, 0, 0); stroke-width: 1px; fill: none; marker-end: url(&quot;#arrowhead&quot;);"/><path id="edge-%16" class="edge-path" d="M14.136466979980469,686L14.136466979980469,687.6666666666666C14.136466979980469,689.3333333333334,14.136466979980469,692.6666666666666,25.104576746622723,697.1079943139442C36.072686513264976,701.5493219612216,58.00890604654948,707.0986439224431,68.97701581319173,709.873304903054L79.94512557983398,712.6479658836648" style="stroke: rgb(0, 0, 0); stroke-width: 1px; fill: none; marker-end: url(&quot;#arrowhead&quot;);"/><path id="edge-%19" class="edge-path" d="M342.4542236328125,299L342.4542236328125,311.1666666666667C342.4542236328125,323.3333333333333,342.4542236328125,347.6666666666667,342.238988766725,361.5C342.02375390063753,375.3333333333333,341.5932841684626,378.6666666666667,341.37804930237513,380.3333333333333L341.1628144362877,382" style="stroke: rgb(0, 0, 0); stroke-width: 1px; fill: none; marker-end: url(&quot;#arrowhead&quot;);"/><path id="edge-%22" class="edge-path" d="M728.5006408691406,299L728.5006408691406,311.1666666666667C728.5006408691406,323.3333333333333,728.5006408691406,347.6666666666667,736.4729220072428,362.33938375766644C744.4452031453451,377.01210084866625,760.3897654215494,382.0242016973325,768.3620465596517,384.5302521216656L776.3343276977539,387.03630254599875" style="stroke: rgb(0, 0, 0); stroke-width: 1px; fill: none; marker-end: url(&quot;#arrowhead&quot;);"/><path id="edge-%25" class="edge-path" d="M500.40789794921875,299L500.40789794921875,311.1666666666667C500.40789794921875,323.3333333333333,500.40789794921875,347.6666666666667,510.0468457539876,362.5669793403245C519.6857935587565,377.4672920139824,538.9636891682943,382.9345840279648,548.6026369730631,385.6682300349559L558.241584777832,388.4018760419471" style="stroke: rgb(0, 0, 0); stroke-width: 1px; fill: none; marker-end: url(&quot;#arrowhead&quot;);"/><path id="edge-%28" class="edge-path" d="M76.31720733642578,582L76.31720733642578,584.6666666666666C76.31720733642578,587.3333333333334,76.31720733642578,592.6666666666666,76.31720733642578,598.5C76.31720733642578,604.3333333333334,76.31720733642578,610.6666666666666,76.31720733642578,613.8333333333334L76.31720733642578,617" style="stroke: rgb(0, 0, 0); stroke-width: 1px; fill: none; marker-end: url(&quot;#arrowhead&quot;);"/><path id="edge-%c.1" class="edge-path" d="M76.31720733642578,637L76.31720733642578,640.1666666666666C76.31720733642578,643.3333333333334,76.31720733642578,649.6666666666666,76.31720733642578,654.5C76.31720733642578,659.3333333333334,76.31720733642578,662.6666666666666,76.31720733642578,664.3333333333334L76.31720733642578,666" style="stroke: rgb(0, 0, 0); stroke-width: 1px; fill: none; marker-end: url(&quot;#arrowhead&quot;);"/><path id="edge-%32" class="edge-path" d="M76.31720733642578,686L76.31720733642578,687.6666666666666C76.31720733642578,689.3333333333334,76.31720733642578,692.6666666666666,79.33185976401143,696C82.34651219159707,699.3333333333334,88.37581704676836,702.6666666666666,91.390469474354,704.3333333333334L94.40512190193965,706" style="stroke: rgb(0, 0, 0); stroke-width: 1px; fill: none; marker-end: url(&quot;#arrowhead&quot;);"/><path id="edge-%35" class="edge-path" d="M459.4802474975586,98L459.4802474975586,99.66666666666667C459.4802474975586,101.33333333333333,459.4802474975586,104.66666666666667,459.4802474975586,109.5C459.4802474975586,114.33333333333333,459.4802474975586,120.66666666666667,459.4802474975586,123.83333333333333L459.4802474975586,127" style="stroke: rgb(0, 0, 0); stroke-width: 1px; fill: none; marker-end: url(&quot;#arrowhead&quot;);"/><path id="edge-%h.1" class="edge-path" d="M417.2995071411133,140.81093122917133L370.83258056640625,145.00910935764276C324.3656539916992,149.2072874861142,231.43180084228516,157.60364374305712,184.96487426757812,165.1351552048619C138.4979476928711,172.66666666666666,138.4979476928711,179.33333333333334,138.4979476928711,186C138.4979476928711,192.66666666666666,138.4979476928711,199.33333333333334,138.4979476928711,216.5C138.4979476928711,233.66666666666666,138.4979476928711,261.3333333333333,138.4979476928711,289C138.4979476928711,316.6666666666667,138.4979476928711,344.3333333333333,138.4979476928711,363C138.4979476928711,381.6666666666667,138.4979476928711,391.3333333333333,138.4979476928711,401C138.4979476928711,410.6666666666667,138.4979476928711,420.3333333333333,138.4979476928711,430C138.4979476928711,439.6666666666667,138.4979476928711,449.3333333333333,138.4979476928711,459C138.4979476928711,468.6666666666667,138.4979476928711,478.3333333333333,138.4979476928711,486.5C138.4979476928711,494.6666666666667,138.4979476928711,501.3333333333333,138.4979476928711,508C138.4979476928711,514.6666666666666,138.4979476928711,521.3333333333334,138.4979476928711,530.5C138.4979476928711,539.6666666666666,138.4979476928711,551.3333333333334,138.4979476928711,563C138.4979476928711,574.6666666666666,138.4979476928711,586.3333333333334,138.4979476928711,597C138.4979476928711,607.6666666666666,138.4979476928711,617.3333333333334,138.4979476928711,627C138.4979476928711,636.6666666666666,138.4979476928711,646.3333333333334,138.4979476928711,652.8333333333334C138.4979476928711,659.3333333333334,138.4979476928711,662.6666666666666,138.4979476928711,664.3333333333334L138.4979476928711,666" style="stroke: rgb(0, 0, 0); stroke-width: 1px; fill: none; marker-end: url(&quot;#arrowhead&quot;);"/><path id="edge-%h.1" class="edge-path" d="M501.6609878540039,143.0934343773125L528.0887743631998,146.9111953144271C554.5165608723959,150.72895625154166,607.3721338907877,158.36447812577083,635.4665870666504,163.8489057295521C663.5610402425131,169.33333333333334,666.8943735758463,172.66666666666666,668.5610402425131,174.33333333333334L670.2277069091797,176" style="stroke: rgb(0, 0, 0); stroke-width: 1px; fill: none; marker-end: url(&quot;#arrowhead&quot;);"/><path id="edge-%h.1" class="edge-path" d="M501.6609878540039,139.92054455023072L564.4375648498535,144.2671204585256C627.2141418457031,148.61369636682048,752.7672958374023,157.30684818341024,817.2105394999186,163.32009075837178C881.6537831624349,169.33333333333334,884.9871164957682,172.66666666666666,886.6537831624349,174.33333333333334L888.3204498291016,176" style="stroke: rgb(0, 0, 0); stroke-width: 1px; fill: none; marker-end: url(&quot;#arrowhead&quot;);"/><path id="edge-%h.1" class="edge-path" d="M459.4802474975586,147L459.4802474975586,150.16666666666666C459.4802474975586,153.33333333333334,459.4802474975586,159.66666666666666,460.3135808308919,164.5C461.1469141642253,169.33333333333334,462.8135808308919,172.66666666666666,463.6469141642253,174.33333333333334L464.4802474975586,176" style="stroke: rgb(0, 0, 0); stroke-width: 1px; fill: none; marker-end: url(&quot;#arrowhead&quot;);"/><path id="edge-%39" class="edge-path" d="M138.4979476928711,686L138.4979476928711,687.6666666666666C138.4979476928711,689.3333333333334,138.4979476928711,692.6666666666666,137.93899435284493,696C137.3800410128188,699.3333333333334,136.26213433276646,702.6666666666666,135.7031809927403,704.3333333333334L135.14422765271416,706" style="stroke: rgb(0, 0, 0); stroke-width: 1px; fill: none; marker-end: url(&quot;#arrowhead&quot;);"/><path id="edge-%42" class="edge-path" d="M680.2277069091797,98L680.2277069091797,99.66666666666667C680.2277069091797,101.33333333333333,680.2277069091797,104.66666666666667,680.2277069091797,109.5C680.2277069091797,114.33333333333333,680.2277069091797,120.66666666666667,680.2277069091797,123.83333333333333L680.2277069091797,127" style="stroke: rgb(0, 0, 0); stroke-width: 1px; fill: none; marker-end: url(&quot;#arrowhead&quot;);"/><path id="edge-%w.1" class="edge-path" d="M638.0469665527344,139.47892299331647L562.834285736084,143.8991024944304C487.6216049194336,148.31928199554432,337.1962432861328,157.15964099777216,261.9835624694824,164.91315383221942C186.77088165283203,172.66666666666666,186.77088165283203,179.33333333333334,186.77088165283203,186C186.77088165283203,192.66666666666666,186.77088165283203,199.33333333333334,186.77088165283203,216.5C186.77088165283203,233.66666666666666,186.77088165283203,261.3333333333333,186.77088165283203,289C186.77088165283203,316.6666666666667,186.77088165283203,344.3333333333333,186.77088165283203,363C186.77088165283203,381.6666666666667,186.77088165283203,391.3333333333333,186.77088165283203,401C186.77088165283203,410.6666666666667,186.77088165283203,420.3333333333333,186.77088165283203,430C186.77088165283203,439.6666666666667,186.77088165283203,449.3333333333333,186.77088165283203,459C186.77088165283203,468.6666666666667,186.77088165283203,478.3333333333333,186.77088165283203,486.5C186.77088165283203,494.6666666666667,186.77088165283203,501.3333333333333,186.77088165283203,508C186.77088165283203,514.6666666666666,186.77088165283203,521.3333333333334,186.77088165283203,530.5C186.77088165283203,539.6666666666666,186.77088165283203,551.3333333333334,186.77088165283203,563C186.77088165283203,574.6666666666666,186.77088165283203,586.3333333333334,186.77088165283203,597C186.77088165283203,607.6666666666666,186.77088165283203,617.3333333333334,186.77088165283203,627C186.77088165283203,636.6666666666666,186.77088165283203,646.3333333333334,186.77088165283203,652.8333333333334C186.77088165283203,659.3333333333334,186.77088165283203,662.6666666666666,186.77088165283203,664.3333333333334L186.77088165283203,666" style="stroke: rgb(0, 0, 0); stroke-width: 1px; fill: none; marker-end: url(&quot;#arrowhead&quot;);"/><path id="edge-%w.1" class="edge-path" d="M680.2277069091797,147L680.2277069091797,150.16666666666666C680.2277069091797,153.33333333333334,680.2277069091797,159.66666666666666,680.2277069091797,164.5C680.2277069091797,169.33333333333334,680.2277069091797,172.66666666666666,680.2277069091797,174.33333333333334L680.2277069091797,176" style="stroke: rgb(0, 0, 0); stroke-width: 1px; fill: none; marker-end: url(&quot;#arrowhead&quot;);"/><path id="edge-%w.1" class="edge-path" d="M722.408447265625,142.6088132688856L751.7271143595377,146.50734439073798C781.0457814534506,150.4058755125904,839.683115641276,158.2029377562952,869.0017827351888,163.76813554481427C898.3204498291016,169.33333333333334,898.3204498291016,172.66666666666666,898.3204498291016,174.33333333333334L898.3204498291016,176" style="stroke: rgb(0, 0, 0); stroke-width: 1px; fill: none; marker-end: url(&quot;#arrowhead&quot;);"/><path id="edge-%w.1" class="edge-path" d="M638.0469665527344,143.0934343773125L611.6191800435384,146.9111953144271C585.1913935343424,150.72895625154166,532.3358205159506,158.36447812577083,505.0747006734212,163.8489057295521C477.8135808308919,169.33333333333334,476.1469141642253,172.66666666666666,475.3135808308919,174.33333333333334L474.4802474975586,176" style="stroke: rgb(0, 0, 0); stroke-width: 1px; fill: none; marker-end: url(&quot;#arrowhead&quot;);"/><path id="edge-%46" class="edge-path" d="M186.77088165283203,686L186.77088165283203,687.6666666666666C186.77088165283203,689.3333333333334,186.77088165283203,692.6666666666666,183.43762176338282,696C180.10436187393364,699.3333333333334,173.43784209503528,702.6666666666666,170.10458220558607,704.3333333333334L166.77132231613686,706" style="stroke: rgb(0, 0, 0); stroke-width: 1px; fill: none; marker-end: url(&quot;#arrowhead&quot;);"/><path id="edge-%128" class="edge-path" d="M595.3178024291992,362L595.3178024291992,363.6666666666667C595.3178024291992,365.3333333333333,595.3178024291992,368.6666666666667,595.7399451595613,372C596.1620878899234,375.3333333333333,597.0063733506477,378.6666666666667,597.4285160810098,380.3333333333333L597.8506588113719,382" style="stroke: rgb(0, 0, 0); stroke-width: 1px; fill: none; marker-end: url(&quot;#arrowhead&quot;);"/><path id="edge-%54" class="edge-path" d="M680.2277069091797,196L680.2277069091797,197.66666666666666C680.2277069091797,199.33333333333334,680.2277069091797,202.66666666666666,680.2277069091797,216.5C680.2277069091797,230.33333333333334,680.2277069091797,254.66666666666666,680.2277069091797,266.8333333333333L680.2277069091797,279" style="stroke: rgb(0, 0, 0); stroke-width: 1px; fill: none; marker-end: url(&quot;#arrowhead&quot;);"/><path id="edge-%56" class="edge-path" d="M680.2277069091797,299L680.2277069091797,311.1666666666667C680.2277069091797,323.3333333333333,680.2277069091797,347.6666666666667,674.7038536071777,361.8986015413291C669.1800003051758,376.1305364159916,658.1322937011719,380.2610728319833,652.6084403991699,382.3263410399791L647.084587097168,384.391609247975" style="stroke: rgb(0, 0, 0); stroke-width: 1px; fill: none; marker-end: url(&quot;#arrowhead&quot;);"/><path id="edge-%58" class="edge-path" d="M602.6630859375,420L602.6630859375,421.6666666666667C602.6630859375,423.3333333333333,602.6630859375,426.6666666666667,602.6630859375,430C602.6630859375,433.3333333333333,602.6630859375,436.6666666666667,602.6630859375,438.3333333333333L602.6630859375,440" style="stroke: rgb(0, 0, 0); stroke-width: 1px; fill: none; marker-end: url(&quot;#arrowhead&quot;);"/><path id="edge-%proj_query.1" class="edge-path" d="M602.6630859375,478L602.6630859375,479.6666666666667C602.6630859375,481.3333333333333,602.6630859375,484.6666666666667,617.5523249308268,489.06414203315217C632.4415639241537,493.46161739963765,662.2200419108073,498.92323479927535,677.1092809041342,501.65404349909414L691.9985198974609,504.38485219891294" style="stroke: rgb(0, 0, 0); stroke-width: 1px; fill: none; marker-end: url(&quot;#arrowhead&quot;);"/><path id="edge-%139" class="edge-path" d="M813.4105453491211,362L813.4105453491211,363.6666666666667C813.4105453491211,365.3333333333333,813.4105453491211,368.6666666666667,813.8326880794833,372C814.2548308098453,375.3333333333333,815.0991162705695,378.6666666666667,815.5212590009318,380.3333333333333L815.9434017312938,382" style="stroke: rgb(0, 0, 0); stroke-width: 1px; fill: none; marker-end: url(&quot;#arrowhead&quot;);"/><path id="edge-%68" class="edge-path" d="M898.3204498291016,196L898.3204498291016,197.66666666666666C898.3204498291016,199.33333333333334,898.3204498291016,202.66666666666666,898.3204498291016,216.5C898.3204498291016,230.33333333333334,898.3204498291016,254.66666666666666,898.3204498291016,266.8333333333333L898.3204498291016,279" style="stroke: rgb(0, 0, 0); stroke-width: 1px; fill: none; marker-end: url(&quot;#arrowhead&quot;);"/><path id="edge-%70" class="edge-path" d="M898.3204498291016,299L898.3204498291016,311.1666666666667C898.3204498291016,323.3333333333333,898.3204498291016,347.6666666666667,892.7965965270996,361.8986015413291C887.2727432250977,376.1305364159916,876.2250366210938,380.2610728319833,870.7011833190918,382.3263410399791L865.1773300170898,384.391609247975" style="stroke: rgb(0, 0, 0); stroke-width: 1px; fill: none; marker-end: url(&quot;#arrowhead&quot;);"/><path id="edge-%proj_key.1" class="edge-path" d="M820.7558288574219,420L820.7558288574219,421.6666666666667C820.7558288574219,423.3333333333333,820.7558288574219,426.6666666666667,820.7558288574219,433.1666666666667C820.7558288574219,439.6666666666667,820.7558288574219,449.3333333333333,820.7558288574219,459C820.7558288574219,468.6666666666667,820.7558288574219,478.3333333333333,805.8665898640951,485.8974753664855C790.9773508707682,493.46161739963765,761.1988728841146,498.92323479927535,746.3096338907877,501.65404349909414L731.4203948974609,504.38485219891294" style="stroke: rgb(0, 0, 0); stroke-width: 1px; fill: none; marker-end: url(&quot;#arrowhead&quot;);"/><path id="edge-%input.1" class="edge-path" d="M711.7094573974609,518L711.7094573974609,519.6666666666666C711.7094573974609,521.3333333333334,711.7094573974609,524.6666666666666,711.7094573974609,528C711.7094573974609,531.3333333333334,711.7094573974609,534.6666666666666,711.7094573974609,536.3333333333334L711.7094573974609,538" style="stroke: rgb(0, 0, 0); stroke-width: 1px; fill: none; marker-end: url(&quot;#arrowhead&quot;);"/><path id="edge-%att.1" class="edge-path" d="M711.7094573974609,588L711.7094573974609,589.6666666666666C711.7094573974609,591.3333333333334,711.7094573974609,594.6666666666666,711.7094573974609,598C711.7094573974609,601.3333333333334,711.7094573974609,604.6666666666666,711.7094573974609,606.3333333333334L711.7094573974609,608" style="stroke: rgb(0, 0, 0); stroke-width: 1px; fill: none; marker-end: url(&quot;#arrowhead&quot;);"/><path id="edge-%150" class="edge-path" d="M257.54431915283203,362L257.54431915283203,363.6666666666667C257.54431915283203,365.3333333333333,257.54431915283203,368.6666666666667,263.66820526123047,372.521383549366C269.7920913696289,376.3761004320654,282.0398635864258,380.7522008641308,288.1637496948242,382.9402510801636L294.28763580322266,385.1283012961963" style="stroke: rgb(0, 0, 0); stroke-width: 1px; fill: none; marker-end: url(&quot;#arrowhead&quot;);"/><path id="edge-%85" class="edge-path" d="M460.8076057434082,196L459.3621654510498,197.66666666666666C457.9167251586914,199.33333333333334,455.0258445739746,202.66666666666666,453.5804042816162,216.5C452.1349639892578,230.33333333333334,452.1349639892578,254.66666666666666,452.1349639892578,266.8333333333333L452.1349639892578,279" style="stroke: rgb(0, 0, 0); stroke-width: 1px; fill: none; marker-end: url(&quot;#arrowhead&quot;);"/><path id="edge-%87" class="edge-path" d="M452.1349639892578,299L452.1349639892578,311.1666666666667C452.1349639892578,323.3333333333333,452.1349639892578,347.6666666666667,440.6342430114746,362.77376513003674C429.1335220336914,377.8808635934068,406.132080078125,383.7617271868137,394.6313591003418,386.7021589835171L383.1306381225586,389.64259078022053" style="stroke: rgb(0, 0, 0); stroke-width: 1px; fill: none; marker-end: url(&quot;#arrowhead&quot;);"/><path id="edge-%proj_value.1" class="edge-path" d="M338.7091369628906,420L338.7091369628906,421.6666666666667C338.7091369628906,423.3333333333333,338.7091369628906,426.6666666666667,338.7091369628906,433.1666666666667C338.7091369628906,439.6666666666667,338.7091369628906,449.3333333333333,338.7091369628906,459C338.7091369628906,468.6666666666667,338.7091369628906,478.3333333333333,338.7091369628906,486.5C338.7091369628906,494.6666666666667,338.7091369628906,501.3333333333333,338.7091369628906,508C338.7091369628906,514.6666666666666,338.7091369628906,521.3333333333334,338.7091369628906,530.5C338.7091369628906,539.6666666666666,338.7091369628906,551.3333333333334,338.7091369628906,563C338.7091369628906,574.6666666666666,338.7091369628906,586.3333333333334,338.7091369628906,597C338.7091369628906,607.6666666666666,338.7091369628906,617.3333333333334,338.7091369628906,627C338.7091369628906,636.6666666666666,338.7091369628906,646.3333333333334,378.1854025522868,654.243915885808C417.6616681416829,662.1544984382826,496.6141993204753,668.3089968765652,536.0904649098715,671.3862460957065L575.5667304992676,674.4634953148478" style="stroke: rgb(0, 0, 0); stroke-width: 1px; fill: none; marker-end: url(&quot;#arrowhead&quot;);"/><path id="edge-%93" class="edge-path" d="M711.7094573974609,646L711.7094573974609,647.6666666666666C711.7094573974609,649.3333333333334,711.7094573974609,652.6666666666666,695.5893154144287,657.1023609444957C679.4691734313965,661.5380552223248,647.228889465332,667.0761104446497,631.1087474822998,669.8451380558121L614.9886054992676,672.6141656669745" style="stroke: rgb(0, 0, 0); stroke-width: 1px; fill: none; marker-end: url(&quot;#arrowhead&quot;);"/><path id="edge-%out.1" class="edge-path" d="M595.2776679992676,686L595.2776679992676,687.6666666666666C595.2776679992676,689.3333333333334,595.2776679992676,692.6666666666666,525.6645889282227,698.6607833990042C456.05150985717773,704.6549001313418,316.8253517150879,713.3098002626836,247.21227264404297,717.6372503283545L177.59919357299805,721.9647003940254" style="stroke: rgb(0, 0, 0); stroke-width: 1px; fill: none; marker-end: url(&quot;#arrowhead&quot;);"/><path id="edge-%out0.1" class="edge-path" d="M128.77215957641602,744L128.77215957641602,745.6666666666666C128.77215957641602,747.3333333333334,128.77215957641602,750.6666666666666,128.77215957641602,754C128.77215957641602,757.3333333333334,128.77215957641602,760.6666666666666,128.77215957641602,762.3333333333334L128.77215957641602,764" style="stroke: rgb(0, 0, 0); stroke-width: 1px; fill: none; marker-end: url(&quot;#arrowhead&quot;);"/><path id="edge-%104" class="edge-path" d="M128.77215957641602,784L128.77215957641602,785.6666666666666C128.77215957641602,787.3333333333334,128.77215957641602,790.6666666666666,126.00442373341527,794C123.23668789041453,797.3333333333334,117.70121620441306,800.6666666666666,114.93348036141231,802.3333333333334L112.16574451841157,804" style="stroke: rgb(0, 0, 0); stroke-width: 1px; fill: none; marker-end: url(&quot;#arrowhead&quot;);"/><path id="edge-%107" class="edge-path" d="M80.61355590820312,842L80.61355590820312,843.6666666666666C80.61355590820312,845.3333333333334,80.61355590820312,848.6666666666666,80.61355590820312,852C80.61355590820312,855.3333333333334,80.61355590820312,858.6666666666666,80.61355590820312,860.3333333333334L80.61355590820312,862" style="stroke: rgb(0, 0, 0); stroke-width: 1px; fill: none; marker-end: url(&quot;#arrowhead&quot;);"/></g><g id="edge-labels" class="edge-labels"/><g id="nodes" class="nodes"><g id="input-name-x.1" class="node graph-input" style="" transform="translate(395.37425231933594,0)"><g class="node-item graph-item-input" transform="translate(0,0)"><path d="M5,0h18.53125a5,5 0 0 1 5,5v10a5,5 0 0 1 -5,5h-18.53125a5,5 0 0 1 -5,-5v-10a5,5 0 0 1 5,-5z" style="stroke: rgb(0, 0, 0); fill: rgb(238, 238, 238); stroke-width: 0;"/><text x="6" y="13" style="font-family: -apple-system, BlinkMacSystemFont, &quot;Segoe WPC&quot;, &quot;Segoe UI&quot;, Ubuntu, &quot;Droid Sans&quot;, sans-serif, &quot;PingFang SC&quot;; font-size: 11px; text-rendering: geometricprecision; user-select: none;">x.1</text></g><path class="node node-border" d="M5,0h18.53125a5,5 0 0 1 5,5v10a5,5 0 0 1 -5,5h-18.53125a5,5 0 0 1 -5,-5v-10a5,5 0 0 1 5,-5z" style="stroke: rgb(51, 51, 51); fill: none; stroke-width: 1px;"/></g><g id="node-id-0" class="node graph-node" style="" transform="translate(322.2995071411133,118)"><g class="node-item node-item-type" transform="translate(0,0)"><path d="M5,0h65a5,5 0 0 1 5,5v15a0,0 0 0 1 0,0h-75a0,0 0 0 1 0,0v-15a5,5 0 0 1 5,-5z" style="stroke: rgb(0, 0, 0); fill: rgb(0, 0, 0); stroke-width: 0;"/><text x="6" y="13" style="font-family: -apple-system, BlinkMacSystemFont, &quot;Segoe WPC&quot;, &quot;Segoe UI&quot;, Ubuntu, &quot;Droid Sans&quot;, sans-serif, &quot;PingFang SC&quot;; font-size: 11px; text-rendering: geometricprecision; user-select: none; fill: rgb(255, 255, 255);">size</text></g><g class="node-argument-list" transform="translate(0,20)"><path d="M0,0h75a0,0 0 0 1 0,0v13a5,5 0 0 1 -5,5h-65a5,5 0 0 1 -5,-5v-13a0,0 0 0 1 0,0z" style="stroke: rgb(0, 0, 0); fill: rgb(255, 255, 255); stroke-width: 0;"/><g class="node-argument"><rect rx="3" ry="3" x="3" y="3" width="69" height="12" style="fill: transparent;"/><text xml:space="preserve" x="6" y="12" style="font-family: -apple-system, BlinkMacSystemFont, &quot;Segoe WPC&quot;, &quot;Segoe UI&quot;, Ubuntu, &quot;Droid Sans&quot;, sans-serif, &quot;PingFang SC&quot;; font-size: 9px; font-weight: normal; text-rendering: geometricprecision; user-select: none;"><title>int64</title><tspan>dim</tspan><tspan> = 0</tspan></text></g><line class="node" x1="0" x2="75" y1="0" y2="0" style="stroke: rgb(51, 51, 51); fill: none; stroke-width: 1px;"/></g><path class="node node-border" d="M5,0h65a5,5 0 0 1 5,5v28a5,5 0 0 1 -5,5h-65a5,5 0 0 1 -5,-5v-28a5,5 0 0 1 5,-5z" style="stroke: rgb(51, 51, 51); fill: none; stroke-width: 1px;"/></g><g id="node-id-1" class="node graph-node" style="" transform="translate(317.61876678466797,176)"><g class="node-item node-item-type" transform="translate(0,0)"><path d="M5,0h74.36148071289062a5,5 0 0 1 5,5v10a5,5 0 0 1 -5,5h-74.36148071289062a5,5 0 0 1 -5,-5v-10a5,5 0 0 1 5,-5z" style="stroke: rgb(0, 0, 0); fill: rgb(0, 0, 0); stroke-width: 0;"/><text x="6" y="13" style="font-family: -apple-system, BlinkMacSystemFont, &quot;Segoe WPC&quot;, &quot;Segoe UI&quot;, Ubuntu, &quot;Droid Sans&quot;, sans-serif, &quot;PingFang SC&quot;; font-size: 11px; text-rendering: geometricprecision; user-select: none; fill: rgb(255, 255, 255);">NumToTensor</text></g><path class="node node-border" d="M5,0h74.36148071289062a5,5 0 0 1 5,5v10a5,5 0 0 1 -5,5h-74.36148071289062a5,5 0 0 1 -5,-5v-10a5,5 0 0 1 5,-5z" style="stroke: rgb(51, 51, 51); fill: none; stroke-width: 1px;"/></g><g id="node-id-2" class="node graph-node" style="" transform="translate(0,666)"><g class="node-item node-item-type" transform="translate(0,0)"><path d="M5,0h18.272933959960938a5,5 0 0 1 5,5v10a5,5 0 0 1 -5,5h-18.272933959960938a5,5 0 0 1 -5,-5v-10a5,5 0 0 1 5,-5z" style="stroke: rgb(0, 0, 0); fill: rgb(0, 0, 0); stroke-width: 0;"/><text x="6" y="13" style="font-family: -apple-system, BlinkMacSystemFont, &quot;Segoe WPC&quot;, &quot;Segoe UI&quot;, Ubuntu, &quot;Droid Sans&quot;, sans-serif, &quot;PingFang SC&quot;; font-size: 11px; text-rendering: geometricprecision; user-select: none; fill: rgb(255, 255, 255);">Int</text></g><path class="node node-border" d="M5,0h18.272933959960938a5,5 0 0 1 5,5v10a5,5 0 0 1 -5,5h-18.272933959960938a5,5 0 0 1 -5,-5v-10a5,5 0 0 1 5,-5z" style="stroke: rgb(51, 51, 51); fill: none; stroke-width: 1px;"/></g><g id="node-id-3" class="node graph-node" style="" transform="translate(328.31775665283203,279)"><g class="node-item node-item-type" transform="translate(0,0)"><path d="M5,0h18.272933959960938a5,5 0 0 1 5,5v10a5,5 0 0 1 -5,5h-18.272933959960938a5,5 0 0 1 -5,-5v-10a5,5 0 0 1 5,-5z" style="stroke: rgb(0, 0, 0); fill: rgb(0, 0, 0); stroke-width: 0;"/><text x="6" y="13" style="font-family: -apple-system, BlinkMacSystemFont, &quot;Segoe WPC&quot;, &quot;Segoe UI&quot;, Ubuntu, &quot;Droid Sans&quot;, sans-serif, &quot;PingFang SC&quot;; font-size: 11px; text-rendering: geometricprecision; user-select: none; fill: rgb(255, 255, 255);">Int</text></g><path class="node node-border" d="M5,0h18.272933959960938a5,5 0 0 1 5,5v10a5,5 0 0 1 -5,5h-18.272933959960938a5,5 0 0 1 -5,-5v-10a5,5 0 0 1 5,-5z" style="stroke: rgb(51, 51, 51); fill: none; stroke-width: 1px;"/></g><g id="node-id-4" class="node graph-node" style="" transform="translate(714.3641738891602,279)"><g class="node-item node-item-type" transform="translate(0,0)"><path d="M5,0h18.272933959960938a5,5 0 0 1 5,5v10a5,5 0 0 1 -5,5h-18.272933959960938a5,5 0 0 1 -5,-5v-10a5,5 0 0 1 5,-5z" style="stroke: rgb(0, 0, 0); fill: rgb(0, 0, 0); stroke-width: 0;"/><text x="6" y="13" style="font-family: -apple-system, BlinkMacSystemFont, &quot;Segoe WPC&quot;, &quot;Segoe UI&quot;, Ubuntu, &quot;Droid Sans&quot;, sans-serif, &quot;PingFang SC&quot;; font-size: 11px; text-rendering: geometricprecision; user-select: none; fill: rgb(255, 255, 255);">Int</text></g><path class="node node-border" d="M5,0h18.272933959960938a5,5 0 0 1 5,5v10a5,5 0 0 1 -5,5h-18.272933959960938a5,5 0 0 1 -5,-5v-10a5,5 0 0 1 5,-5z" style="stroke: rgb(51, 51, 51); fill: none; stroke-width: 1px;"/></g><g id="node-id-5" class="node graph-node" style="" transform="translate(486.2714309692383,279)"><g class="node-item node-item-type" transform="translate(0,0)"><path d="M5,0h18.272933959960938a5,5 0 0 1 5,5v10a5,5 0 0 1 -5,5h-18.272933959960938a5,5 0 0 1 -5,-5v-10a5,5 0 0 1 5,-5z" style="stroke: rgb(0, 0, 0); fill: rgb(0, 0, 0); stroke-width: 0;"/><text x="6" y="13" style="font-family: -apple-system, BlinkMacSystemFont, &quot;Segoe WPC&quot;, &quot;Segoe UI&quot;, Ubuntu, &quot;Droid Sans&quot;, sans-serif, &quot;PingFang SC&quot;; font-size: 11px; text-rendering: geometricprecision; user-select: none; fill: rgb(255, 255, 255);">Int</text></g><path class="node node-border" d="M5,0h18.272933959960938a5,5 0 0 1 5,5v10a5,5 0 0 1 -5,5h-18.272933959960938a5,5 0 0 1 -5,-5v-10a5,5 0 0 1 5,-5z" style="stroke: rgb(51, 51, 51); fill: none; stroke-width: 1px;"/></g><g id="node-id-6" class="node graph-node" style="" transform="translate(38.81720733642578,544)"><g class="node-item node-item-type" transform="translate(0,0)"><path d="M5,0h65a5,5 0 0 1 5,5v15a0,0 0 0 1 0,0h-75a0,0 0 0 1 0,0v-15a5,5 0 0 1 5,-5z" style="stroke: rgb(0, 0, 0); fill: rgb(0, 0, 0); stroke-width: 0;"/><text x="6" y="13" style="font-family: -apple-system, BlinkMacSystemFont, &quot;Segoe WPC&quot;, &quot;Segoe UI&quot;, Ubuntu, &quot;Droid Sans&quot;, sans-serif, &quot;PingFang SC&quot;; font-size: 11px; text-rendering: geometricprecision; user-select: none; fill: rgb(255, 255, 255);">size</text></g><g class="node-argument-list" transform="translate(0,20)"><path d="M0,0h75a0,0 0 0 1 0,0v13a5,5 0 0 1 -5,5h-65a5,5 0 0 1 -5,-5v-13a0,0 0 0 1 0,0z" style="stroke: rgb(0, 0, 0); fill: rgb(255, 255, 255); stroke-width: 0;"/><g class="node-argument"><rect rx="3" ry="3" x="3" y="3" width="69" height="12" style="fill: transparent;"/><text xml:space="preserve" x="6" y="12" style="font-family: -apple-system, BlinkMacSystemFont, &quot;Segoe WPC&quot;, &quot;Segoe UI&quot;, Ubuntu, &quot;Droid Sans&quot;, sans-serif, &quot;PingFang SC&quot;; font-size: 9px; font-weight: normal; text-rendering: geometricprecision; user-select: none;"><title>int64</title><tspan>dim</tspan><tspan> = 1</tspan></text></g><line class="node" x1="0" x2="75" y1="0" y2="0" style="stroke: rgb(51, 51, 51); fill: none; stroke-width: 1px;"/></g><path class="node node-border" d="M5,0h65a5,5 0 0 1 5,5v28a5,5 0 0 1 -5,5h-65a5,5 0 0 1 -5,-5v-28a5,5 0 0 1 5,-5z" style="stroke: rgb(51, 51, 51); fill: none; stroke-width: 1px;"/></g><g id="node-id-7" class="node graph-node" style="" transform="translate(34.13646697998047,617)"><g class="node-item node-item-type" transform="translate(0,0)"><path d="M5,0h74.36148071289062a5,5 0 0 1 5,5v10a5,5 0 0 1 -5,5h-74.36148071289062a5,5 0 0 1 -5,-5v-10a5,5 0 0 1 5,-5z" style="stroke: rgb(0, 0, 0); fill: rgb(0, 0, 0); stroke-width: 0;"/><text x="6" y="13" style="font-family: -apple-system, BlinkMacSystemFont, &quot;Segoe WPC&quot;, &quot;Segoe UI&quot;, Ubuntu, &quot;Droid Sans&quot;, sans-serif, &quot;PingFang SC&quot;; font-size: 11px; text-rendering: geometricprecision; user-select: none; fill: rgb(255, 255, 255);">NumToTensor</text></g><path class="node node-border" d="M5,0h74.36148071289062a5,5 0 0 1 5,5v10a5,5 0 0 1 -5,5h-74.36148071289062a5,5 0 0 1 -5,-5v-10a5,5 0 0 1 5,-5z" style="stroke: rgb(51, 51, 51); fill: none; stroke-width: 1px;"/></g><g id="node-id-8" class="node graph-node" style="" transform="translate(62.18074035644531,666)"><g class="node-item node-item-type" transform="translate(0,0)"><path d="M5,0h18.272933959960938a5,5 0 0 1 5,5v10a5,5 0 0 1 -5,5h-18.272933959960938a5,5 0 0 1 -5,-5v-10a5,5 0 0 1 5,-5z" style="stroke: rgb(0, 0, 0); fill: rgb(0, 0, 0); stroke-width: 0;"/><text x="6" y="13" style="font-family: -apple-system, BlinkMacSystemFont, &quot;Segoe WPC&quot;, &quot;Segoe UI&quot;, Ubuntu, &quot;Droid Sans&quot;, sans-serif, &quot;PingFang SC&quot;; font-size: 11px; text-rendering: geometricprecision; user-select: none; fill: rgb(255, 255, 255);">Int</text></g><path class="node node-border" d="M5,0h18.272933959960938a5,5 0 0 1 5,5v10a5,5 0 0 1 -5,5h-18.272933959960938a5,5 0 0 1 -5,-5v-10a5,5 0 0 1 5,-5z" style="stroke: rgb(51, 51, 51); fill: none; stroke-width: 1px;"/></g><g id="node-id-9" class="node graph-node" style="" transform="translate(421.9802474975586,60)"><g class="node-item node-item-type" transform="translate(0,0)"><path d="M5,0h65a5,5 0 0 1 5,5v15a0,0 0 0 1 0,0h-75a0,0 0 0 1 0,0v-15a5,5 0 0 1 5,-5z" style="stroke: rgb(0, 0, 0); fill: rgb(0, 0, 0); stroke-width: 0;"/><text x="6" y="13" style="font-family: -apple-system, BlinkMacSystemFont, &quot;Segoe WPC&quot;, &quot;Segoe UI&quot;, Ubuntu, &quot;Droid Sans&quot;, sans-serif, &quot;PingFang SC&quot;; font-size: 11px; text-rendering: geometricprecision; user-select: none; fill: rgb(255, 255, 255);">size</text></g><g class="node-argument-list" transform="translate(0,20)"><path d="M0,0h75a0,0 0 0 1 0,0v13a5,5 0 0 1 -5,5h-65a5,5 0 0 1 -5,-5v-13a0,0 0 0 1 0,0z" style="stroke: rgb(0, 0, 0); fill: rgb(255, 255, 255); stroke-width: 0;"/><g class="node-argument"><rect rx="3" ry="3" x="3" y="3" width="69" height="12" style="fill: transparent;"/><text xml:space="preserve" x="6" y="12" style="font-family: -apple-system, BlinkMacSystemFont, &quot;Segoe WPC&quot;, &quot;Segoe UI&quot;, Ubuntu, &quot;Droid Sans&quot;, sans-serif, &quot;PingFang SC&quot;; font-size: 9px; font-weight: normal; text-rendering: geometricprecision; user-select: none;"><title>int64</title><tspan>dim</tspan><tspan> = 2</tspan></text></g><line class="node" x1="0" x2="75" y1="0" y2="0" style="stroke: rgb(51, 51, 51); fill: none; stroke-width: 1px;"/></g><path class="node node-border" d="M5,0h65a5,5 0 0 1 5,5v28a5,5 0 0 1 -5,5h-65a5,5 0 0 1 -5,-5v-28a5,5 0 0 1 5,-5z" style="stroke: rgb(51, 51, 51); fill: none; stroke-width: 1px;"/></g><g id="node-id-10" class="node graph-node" style="" transform="translate(417.2995071411133,127)"><g class="node-item node-item-type" transform="translate(0,0)"><path d="M5,0h74.36148071289062a5,5 0 0 1 5,5v10a5,5 0 0 1 -5,5h-74.36148071289062a5,5 0 0 1 -5,-5v-10a5,5 0 0 1 5,-5z" style="stroke: rgb(0, 0, 0); fill: rgb(0, 0, 0); stroke-width: 0;"/><text x="6" y="13" style="font-family: -apple-system, BlinkMacSystemFont, &quot;Segoe WPC&quot;, &quot;Segoe UI&quot;, Ubuntu, &quot;Droid Sans&quot;, sans-serif, &quot;PingFang SC&quot;; font-size: 11px; text-rendering: geometricprecision; user-select: none; fill: rgb(255, 255, 255);">NumToTensor</text></g><path class="node node-border" d="M5,0h74.36148071289062a5,5 0 0 1 5,5v10a5,5 0 0 1 -5,5h-74.36148071289062a5,5 0 0 1 -5,-5v-10a5,5 0 0 1 5,-5z" style="stroke: rgb(51, 51, 51); fill: none; stroke-width: 1px;"/></g><g id="node-id-11" class="node graph-node" style="" transform="translate(124.36148071289062,666)"><g class="node-item node-item-type" transform="translate(0,0)"><path d="M5,0h18.272933959960938a5,5 0 0 1 5,5v10a5,5 0 0 1 -5,5h-18.272933959960938a5,5 0 0 1 -5,-5v-10a5,5 0 0 1 5,-5z" style="stroke: rgb(0, 0, 0); fill: rgb(0, 0, 0); stroke-width: 0;"/><text x="6" y="13" style="font-family: -apple-system, BlinkMacSystemFont, &quot;Segoe WPC&quot;, &quot;Segoe UI&quot;, Ubuntu, &quot;Droid Sans&quot;, sans-serif, &quot;PingFang SC&quot;; font-size: 11px; text-rendering: geometricprecision; user-select: none; fill: rgb(255, 255, 255);">Int</text></g><path class="node node-border" d="M5,0h18.272933959960938a5,5 0 0 1 5,5v10a5,5 0 0 1 -5,5h-18.272933959960938a5,5 0 0 1 -5,-5v-10a5,5 0 0 1 5,-5z" style="stroke: rgb(51, 51, 51); fill: none; stroke-width: 1px;"/></g><g id="node-id-12" class="node graph-node" style="" transform="translate(642.7277069091797,60)"><g class="node-item node-item-type" transform="translate(0,0)"><path d="M5,0h65a5,5 0 0 1 5,5v15a0,0 0 0 1 0,0h-75a0,0 0 0 1 0,0v-15a5,5 0 0 1 5,-5z" style="stroke: rgb(0, 0, 0); fill: rgb(0, 0, 0); stroke-width: 0;"/><text x="6" y="13" style="font-family: -apple-system, BlinkMacSystemFont, &quot;Segoe WPC&quot;, &quot;Segoe UI&quot;, Ubuntu, &quot;Droid Sans&quot;, sans-serif, &quot;PingFang SC&quot;; font-size: 11px; text-rendering: geometricprecision; user-select: none; fill: rgb(255, 255, 255);">size</text></g><g class="node-argument-list" transform="translate(0,20)"><path d="M0,0h75a0,0 0 0 1 0,0v13a5,5 0 0 1 -5,5h-65a5,5 0 0 1 -5,-5v-13a0,0 0 0 1 0,0z" style="stroke: rgb(0, 0, 0); fill: rgb(255, 255, 255); stroke-width: 0;"/><g class="node-argument"><rect rx="3" ry="3" x="3" y="3" width="69" height="12" style="fill: transparent;"/><text xml:space="preserve" x="6" y="12" style="font-family: -apple-system, BlinkMacSystemFont, &quot;Segoe WPC&quot;, &quot;Segoe UI&quot;, Ubuntu, &quot;Droid Sans&quot;, sans-serif, &quot;PingFang SC&quot;; font-size: 9px; font-weight: normal; text-rendering: geometricprecision; user-select: none;"><title>int64</title><tspan>dim</tspan><tspan> = 3</tspan></text></g><line class="node" x1="0" x2="75" y1="0" y2="0" style="stroke: rgb(51, 51, 51); fill: none; stroke-width: 1px;"/></g><path class="node node-border" d="M5,0h65a5,5 0 0 1 5,5v28a5,5 0 0 1 -5,5h-65a5,5 0 0 1 -5,-5v-28a5,5 0 0 1 5,-5z" style="stroke: rgb(51, 51, 51); fill: none; stroke-width: 1px;"/></g><g id="node-id-13" class="node graph-node" style="" transform="translate(638.0469665527344,127)"><g class="node-item node-item-type" transform="translate(0,0)"><path d="M5,0h74.36148071289062a5,5 0 0 1 5,5v10a5,5 0 0 1 -5,5h-74.36148071289062a5,5 0 0 1 -5,-5v-10a5,5 0 0 1 5,-5z" style="stroke: rgb(0, 0, 0); fill: rgb(0, 0, 0); stroke-width: 0;"/><text x="6" y="13" style="font-family: -apple-system, BlinkMacSystemFont, &quot;Segoe WPC&quot;, &quot;Segoe UI&quot;, Ubuntu, &quot;Droid Sans&quot;, sans-serif, &quot;PingFang SC&quot;; font-size: 11px; text-rendering: geometricprecision; user-select: none; fill: rgb(255, 255, 255);">NumToTensor</text></g><path class="node node-border" d="M5,0h74.36148071289062a5,5 0 0 1 5,5v10a5,5 0 0 1 -5,5h-74.36148071289062a5,5 0 0 1 -5,-5v-10a5,5 0 0 1 5,-5z" style="stroke: rgb(51, 51, 51); fill: none; stroke-width: 1px;"/></g><g id="node-id-14" class="node graph-node" style="" transform="translate(172.63441467285156,666)"><g class="node-item node-item-type" transform="translate(0,0)"><path d="M5,0h18.272933959960938a5,5 0 0 1 5,5v10a5,5 0 0 1 -5,5h-18.272933959960938a5,5 0 0 1 -5,-5v-10a5,5 0 0 1 5,-5z" style="stroke: rgb(0, 0, 0); fill: rgb(0, 0, 0); stroke-width: 0;"/><text x="6" y="13" style="font-family: -apple-system, BlinkMacSystemFont, &quot;Segoe WPC&quot;, &quot;Segoe UI&quot;, Ubuntu, &quot;Droid Sans&quot;, sans-serif, &quot;PingFang SC&quot;; font-size: 11px; text-rendering: geometricprecision; user-select: none; fill: rgb(255, 255, 255);">Int</text></g><path class="node node-border" d="M5,0h18.272933959960938a5,5 0 0 1 5,5v10a5,5 0 0 1 -5,5h-18.272933959960938a5,5 0 0 1 -5,-5v-10a5,5 0 0 1 5,-5z" style="stroke: rgb(51, 51, 51); fill: none; stroke-width: 1px;"/></g><g id="node-id-15" class="node graph-node" style="" transform="translate(544.5443649291992,216)"><g class="node-item node-item-type node-item-type-layer" transform="translate(0,0)"><path d="M5,0h91.546875a5,5 0 0 1 5,5v15a0,0 0 0 1 0,0h-101.546875a0,0 0 0 1 0,0v-15a5,5 0 0 1 5,-5z" style="stroke: rgb(0, 0, 0); fill: rgb(51, 85, 136); stroke-width: 0;"/><text x="6" y="13" style="font-family: -apple-system, BlinkMacSystemFont, &quot;Segoe WPC&quot;, &quot;Segoe UI&quot;, Ubuntu, &quot;Droid Sans&quot;, sans-serif, &quot;PingFang SC&quot;; font-size: 11px; text-rendering: geometricprecision; user-select: none; fill: rgb(255, 255, 255);">_convolution</text></g><g class="node-argument-list" transform="translate(0,20)"><path d="M0,0h101.546875a0,0 0 0 1 0,0v121a5,5 0 0 1 -5,5h-91.546875a5,5 0 0 1 -5,-5v-121a0,0 0 0 1 0,0z" style="stroke: rgb(0, 0, 0); fill: rgb(255, 255, 255); stroke-width: 0;"/><g class="node-argument"><rect rx="3" ry="3" x="3" y="3" width="95.546875" height="12" style="fill: transparent;"/><text xml:space="preserve" x="6" y="12" style="font-family: -apple-system, BlinkMacSystemFont, &quot;Segoe WPC&quot;, &quot;Segoe UI&quot;, Ubuntu, &quot;Droid Sans&quot;, sans-serif, &quot;PingFang SC&quot;; font-size: 9px; font-weight: normal; text-rendering: geometricprecision; user-select: none;"><title>int64[]</title><tspan>stride</tspan><tspan> = 1, 1</tspan></text></g><g class="node-argument"><rect rx="3" ry="3" x="3" y="15" width="95.546875" height="12" style="fill: transparent;"/><text xml:space="preserve" x="6" y="24" style="font-family: -apple-system, BlinkMacSystemFont, &quot;Segoe WPC&quot;, &quot;Segoe UI&quot;, Ubuntu, &quot;Droid Sans&quot;, sans-serif, &quot;PingFang SC&quot;; font-size: 9px; font-weight: normal; text-rendering: geometricprecision; user-select: none;"><title>int64[]</title><tspan>padding</tspan><tspan> = 0, 0</tspan></text></g><g class="node-argument"><rect rx="3" ry="3" x="3" y="27" width="95.546875" height="12" style="fill: transparent;"/><text xml:space="preserve" x="6" y="36" style="font-family: -apple-system, BlinkMacSystemFont, &quot;Segoe WPC&quot;, &quot;Segoe UI&quot;, Ubuntu, &quot;Droid Sans&quot;, sans-serif, &quot;PingFang SC&quot;; font-size: 9px; font-weight: normal; text-rendering: geometricprecision; user-select: none;"><title>int64[]</title><tspan>dilation</tspan><tspan> = 1, 1</tspan></text></g><g class="node-argument"><rect rx="3" ry="3" x="3" y="39" width="95.546875" height="12" style="fill: transparent;"/><text xml:space="preserve" x="6" y="48" style="font-family: -apple-system, BlinkMacSystemFont, &quot;Segoe WPC&quot;, &quot;Segoe UI&quot;, Ubuntu, &quot;Droid Sans&quot;, sans-serif, &quot;PingFang SC&quot;; font-size: 9px; font-weight: normal; text-rendering: geometricprecision; user-select: none;"><title>boolean</title><tspan>transposed</tspan><tspan> = false</tspan></text></g><g class="node-argument"><rect rx="3" ry="3" x="3" y="51" width="95.546875" height="12" style="fill: transparent;"/><text xml:space="preserve" x="6" y="60" style="font-family: -apple-system, BlinkMacSystemFont, &quot;Segoe WPC&quot;, &quot;Segoe UI&quot;, Ubuntu, &quot;Droid Sans&quot;, sans-serif, &quot;PingFang SC&quot;; font-size: 9px; font-weight: normal; text-rendering: geometricprecision; user-select: none;"><title>int64[]</title><tspan>output_padding</tspan><tspan> = 0, 0</tspan></text></g><g class="node-argument"><rect rx="3" ry="3" x="3" y="63" width="95.546875" height="12" style="fill: transparent;"/><text xml:space="preserve" x="6" y="72" style="font-family: -apple-system, BlinkMacSystemFont, &quot;Segoe WPC&quot;, &quot;Segoe UI&quot;, Ubuntu, &quot;Droid Sans&quot;, sans-serif, &quot;PingFang SC&quot;; font-size: 9px; font-weight: normal; text-rendering: geometricprecision; user-select: none;"><title>int64</title><tspan>groups</tspan><tspan> = 1</tspan></text></g><g class="node-argument"><rect rx="3" ry="3" x="3" y="75" width="95.546875" height="12" style="fill: transparent;"/><text xml:space="preserve" x="6" y="84" style="font-family: -apple-system, BlinkMacSystemFont, &quot;Segoe WPC&quot;, &quot;Segoe UI&quot;, Ubuntu, &quot;Droid Sans&quot;, sans-serif, &quot;PingFang SC&quot;; font-size: 9px; font-weight: normal; text-rendering: geometricprecision; user-select: none;"><title>boolean</title><tspan>benchmark</tspan><tspan> = false</tspan></text></g><g class="node-argument"><rect rx="3" ry="3" x="3" y="87" width="95.546875" height="12" style="fill: transparent;"/><text xml:space="preserve" x="6" y="96" style="font-family: -apple-system, BlinkMacSystemFont, &quot;Segoe WPC&quot;, &quot;Segoe UI&quot;, Ubuntu, &quot;Droid Sans&quot;, sans-serif, &quot;PingFang SC&quot;; font-size: 9px; font-weight: normal; text-rendering: geometricprecision; user-select: none;"><title>boolean</title><tspan>deterministic</tspan><tspan> = false</tspan></text></g><g class="node-argument"><rect rx="3" ry="3" x="3" y="99" width="95.546875" height="12" style="fill: transparent;"/><text xml:space="preserve" x="6" y="108" style="font-family: -apple-system, BlinkMacSystemFont, &quot;Segoe WPC&quot;, &quot;Segoe UI&quot;, Ubuntu, &quot;Droid Sans&quot;, sans-serif, &quot;PingFang SC&quot;; font-size: 9px; font-weight: normal; text-rendering: geometricprecision; user-select: none;"><title>boolean</title><tspan>cudnn_enabled</tspan><tspan> = true</tspan></text></g><g class="node-argument"><rect rx="3" ry="3" x="3" y="111" width="95.546875" height="12" style="fill: transparent;"/><text xml:space="preserve" x="6" y="120" style="font-family: -apple-system, BlinkMacSystemFont, &quot;Segoe WPC&quot;, &quot;Segoe UI&quot;, Ubuntu, &quot;Droid Sans&quot;, sans-serif, &quot;PingFang SC&quot;; font-size: 9px; font-weight: normal; text-rendering: geometricprecision; user-select: none;"><title>boolean</title><tspan>allow_tf32</tspan><tspan> = true</tspan></text></g><line class="node" x1="0" x2="101.546875" y1="0" y2="0" style="stroke: rgb(51, 51, 51); fill: none; stroke-width: 1px;"/></g><path class="node node-border" d="M5,0h91.546875a5,5 0 0 1 5,5v136a5,5 0 0 1 -5,5h-91.546875a5,5 0 0 1 -5,-5v-136a5,5 0 0 1 5,-5z" style="stroke: rgb(51, 51, 51); fill: none; stroke-width: 1px;"/></g><g id="node-id-16" class="node graph-node" style="" transform="translate(663.8292694091797,176)"><g class="node-item node-item-type" transform="translate(0,0)"><path d="M5,0h22.796875a5,5 0 0 1 5,5v10a5,5 0 0 1 -5,5h-22.796875a5,5 0 0 1 -5,-5v-10a5,5 0 0 1 5,-5z" style="stroke: rgb(0, 0, 0); fill: rgb(0, 0, 0); stroke-width: 0;"/><text x="6" y="13" style="font-family: -apple-system, BlinkMacSystemFont, &quot;Segoe WPC&quot;, &quot;Segoe UI&quot;, Ubuntu, &quot;Droid Sans&quot;, sans-serif, &quot;PingFang SC&quot;; font-size: 11px; text-rendering: geometricprecision; user-select: none; fill: rgb(255, 255, 255);">mul</text></g><path class="node node-border" d="M5,0h22.796875a5,5 0 0 1 5,5v10a5,5 0 0 1 -5,5h-22.796875a5,5 0 0 1 -5,-5v-10a5,5 0 0 1 5,-5z" style="stroke: rgb(51, 51, 51); fill: none; stroke-width: 1px;"/></g><g id="node-id-17" class="node graph-node" style="" transform="translate(666.0912399291992,279)"><g class="node-item node-item-type" transform="translate(0,0)"><path d="M5,0h18.272933959960938a5,5 0 0 1 5,5v10a5,5 0 0 1 -5,5h-18.272933959960938a5,5 0 0 1 -5,-5v-10a5,5 0 0 1 5,-5z" style="stroke: rgb(0, 0, 0); fill: rgb(0, 0, 0); stroke-width: 0;"/><text x="6" y="13" style="font-family: -apple-system, BlinkMacSystemFont, &quot;Segoe WPC&quot;, &quot;Segoe UI&quot;, Ubuntu, &quot;Droid Sans&quot;, sans-serif, &quot;PingFang SC&quot;; font-size: 11px; text-rendering: geometricprecision; user-select: none; fill: rgb(255, 255, 255);">Int</text></g><path class="node node-border" d="M5,0h18.272933959960938a5,5 0 0 1 5,5v10a5,5 0 0 1 -5,5h-18.272933959960938a5,5 0 0 1 -5,-5v-10a5,5 0 0 1 5,-5z" style="stroke: rgb(51, 51, 51); fill: none; stroke-width: 1px;"/></g><g id="node-id-18" class="node graph-node" style="" transform="translate(558.241584777832,382)"><g class="node-item node-item-type" transform="translate(0,0)"><path d="M5,0h78.84300231933594a5,5 0 0 1 5,5v15a0,0 0 0 1 0,0h-88.84300231933594a0,0 0 0 1 0,0v-15a5,5 0 0 1 5,-5z" style="stroke: rgb(0, 0, 0); fill: rgb(0, 0, 0); stroke-width: 0;"/><text x="6" y="13" style="font-family: -apple-system, BlinkMacSystemFont, &quot;Segoe WPC&quot;, &quot;Segoe UI&quot;, Ubuntu, &quot;Droid Sans&quot;, sans-serif, &quot;PingFang SC&quot;; font-size: 11px; text-rendering: geometricprecision; user-select: none; fill: rgb(255, 255, 255);">view</text></g><g class="node-argument-list" transform="translate(0,20)"><path d="M0,0h88.84300231933594a0,0 0 0 1 0,0v13a5,5 0 0 1 -5,5h-78.84300231933594a5,5 0 0 1 -5,-5v-13a0,0 0 0 1 0,0z" style="stroke: rgb(0, 0, 0); fill: rgb(255, 255, 255); stroke-width: 0;"/><g class="node-argument"><rect rx="3" ry="3" x="3" y="3" width="82.84300231933594" height="12" style="fill: transparent;"/><text xml:space="preserve" x="6" y="12" style="font-family: -apple-system, BlinkMacSystemFont, &quot;Segoe WPC&quot;, &quot;Segoe UI&quot;, Ubuntu, &quot;Droid Sans&quot;, sans-serif, &quot;PingFang SC&quot;; font-size: 9px; font-weight: normal; text-rendering: geometricprecision; user-select: none;"><title>int64[]</title><tspan>size</tspan><tspan> = {%25}, -1, {</tspan></text></g><line class="node" x1="0" x2="88.84300231933594" y1="0" y2="0" style="stroke: rgb(51, 51, 51); fill: none; stroke-width: 1px;"/></g><path class="node node-border" d="M5,0h78.84300231933594a5,5 0 0 1 5,5v28a5,5 0 0 1 -5,5h-78.84300231933594a5,5 0 0 1 -5,-5v-28a5,5 0 0 1 5,-5z" style="stroke: rgb(51, 51, 51); fill: none; stroke-width: 1px;"/></g><g id="node-id-19" class="node graph-node" style="" transform="translate(565.1630859375,440)"><g class="node-item node-item-type node-item-type-shape" transform="translate(0,0)"><path d="M5,0h65a5,5 0 0 1 5,5v15a0,0 0 0 1 0,0h-75a0,0 0 0 1 0,0v-15a5,5 0 0 1 5,-5z" style="stroke: rgb(0, 0, 0); fill: rgb(108, 79, 71); stroke-width: 0;"/><text x="6" y="13" style="font-family: -apple-system, BlinkMacSystemFont, &quot;Segoe WPC&quot;, &quot;Segoe UI&quot;, Ubuntu, &quot;Droid Sans&quot;, sans-serif, &quot;PingFang SC&quot;; font-size: 11px; text-rendering: geometricprecision; user-select: none; fill: rgb(255, 255, 255);">permute</text></g><g class="node-argument-list" transform="translate(0,20)"><path d="M0,0h75a0,0 0 0 1 0,0v13a5,5 0 0 1 -5,5h-65a5,5 0 0 1 -5,-5v-13a0,0 0 0 1 0,0z" style="stroke: rgb(0, 0, 0); fill: rgb(255, 255, 255); stroke-width: 0;"/><g class="node-argument"><rect rx="3" ry="3" x="3" y="3" width="69" height="12" style="fill: transparent;"/><text xml:space="preserve" x="6" y="12" style="font-family: -apple-system, BlinkMacSystemFont, &quot;Segoe WPC&quot;, &quot;Segoe UI&quot;, Ubuntu, &quot;Droid Sans&quot;, sans-serif, &quot;PingFang SC&quot;; font-size: 9px; font-weight: normal; text-rendering: geometricprecision; user-select: none;"><title>int64[]</title><tspan>dims</tspan><tspan> = 0, 2, 1</tspan></text></g><line class="node" x1="0" x2="75" y1="0" y2="0" style="stroke: rgb(51, 51, 51); fill: none; stroke-width: 1px;"/></g><path class="node node-border" d="M5,0h65a5,5 0 0 1 5,5v28a5,5 0 0 1 -5,5h-65a5,5 0 0 1 -5,-5v-28a5,5 0 0 1 5,-5z" style="stroke: rgb(51, 51, 51); fill: none; stroke-width: 1px;"/></g><g id="node-id-20" class="node graph-node" style="" transform="translate(762.6371078491211,216)"><g class="node-item node-item-type node-item-type-layer" transform="translate(0,0)"><path d="M5,0h91.546875a5,5 0 0 1 5,5v15a0,0 0 0 1 0,0h-101.546875a0,0 0 0 1 0,0v-15a5,5 0 0 1 5,-5z" style="stroke: rgb(0, 0, 0); fill: rgb(51, 85, 136); stroke-width: 0;"/><text x="6" y="13" style="font-family: -apple-system, BlinkMacSystemFont, &quot;Segoe WPC&quot;, &quot;Segoe UI&quot;, Ubuntu, &quot;Droid Sans&quot;, sans-serif, &quot;PingFang SC&quot;; font-size: 11px; text-rendering: geometricprecision; user-select: none; fill: rgb(255, 255, 255);">_convolution</text></g><g class="node-argument-list" transform="translate(0,20)"><path d="M0,0h101.546875a0,0 0 0 1 0,0v121a5,5 0 0 1 -5,5h-91.546875a5,5 0 0 1 -5,-5v-121a0,0 0 0 1 0,0z" style="stroke: rgb(0, 0, 0); fill: rgb(255, 255, 255); stroke-width: 0;"/><g class="node-argument"><rect rx="3" ry="3" x="3" y="3" width="95.546875" height="12" style="fill: transparent;"/><text xml:space="preserve" x="6" y="12" style="font-family: -apple-system, BlinkMacSystemFont, &quot;Segoe WPC&quot;, &quot;Segoe UI&quot;, Ubuntu, &quot;Droid Sans&quot;, sans-serif, &quot;PingFang SC&quot;; font-size: 9px; font-weight: normal; text-rendering: geometricprecision; user-select: none;"><title>int64[]</title><tspan>stride</tspan><tspan> = 1, 1</tspan></text></g><g class="node-argument"><rect rx="3" ry="3" x="3" y="15" width="95.546875" height="12" style="fill: transparent;"/><text xml:space="preserve" x="6" y="24" style="font-family: -apple-system, BlinkMacSystemFont, &quot;Segoe WPC&quot;, &quot;Segoe UI&quot;, Ubuntu, &quot;Droid Sans&quot;, sans-serif, &quot;PingFang SC&quot;; font-size: 9px; font-weight: normal; text-rendering: geometricprecision; user-select: none;"><title>int64[]</title><tspan>padding</tspan><tspan> = 0, 0</tspan></text></g><g class="node-argument"><rect rx="3" ry="3" x="3" y="27" width="95.546875" height="12" style="fill: transparent;"/><text xml:space="preserve" x="6" y="36" style="font-family: -apple-system, BlinkMacSystemFont, &quot;Segoe WPC&quot;, &quot;Segoe UI&quot;, Ubuntu, &quot;Droid Sans&quot;, sans-serif, &quot;PingFang SC&quot;; font-size: 9px; font-weight: normal; text-rendering: geometricprecision; user-select: none;"><title>int64[]</title><tspan>dilation</tspan><tspan> = 1, 1</tspan></text></g><g class="node-argument"><rect rx="3" ry="3" x="3" y="39" width="95.546875" height="12" style="fill: transparent;"/><text xml:space="preserve" x="6" y="48" style="font-family: -apple-system, BlinkMacSystemFont, &quot;Segoe WPC&quot;, &quot;Segoe UI&quot;, Ubuntu, &quot;Droid Sans&quot;, sans-serif, &quot;PingFang SC&quot;; font-size: 9px; font-weight: normal; text-rendering: geometricprecision; user-select: none;"><title>boolean</title><tspan>transposed</tspan><tspan> = false</tspan></text></g><g class="node-argument"><rect rx="3" ry="3" x="3" y="51" width="95.546875" height="12" style="fill: transparent;"/><text xml:space="preserve" x="6" y="60" style="font-family: -apple-system, BlinkMacSystemFont, &quot;Segoe WPC&quot;, &quot;Segoe UI&quot;, Ubuntu, &quot;Droid Sans&quot;, sans-serif, &quot;PingFang SC&quot;; font-size: 9px; font-weight: normal; text-rendering: geometricprecision; user-select: none;"><title>int64[]</title><tspan>output_padding</tspan><tspan> = 0, 0</tspan></text></g><g class="node-argument"><rect rx="3" ry="3" x="3" y="63" width="95.546875" height="12" style="fill: transparent;"/><text xml:space="preserve" x="6" y="72" style="font-family: -apple-system, BlinkMacSystemFont, &quot;Segoe WPC&quot;, &quot;Segoe UI&quot;, Ubuntu, &quot;Droid Sans&quot;, sans-serif, &quot;PingFang SC&quot;; font-size: 9px; font-weight: normal; text-rendering: geometricprecision; user-select: none;"><title>int64</title><tspan>groups</tspan><tspan> = 1</tspan></text></g><g class="node-argument"><rect rx="3" ry="3" x="3" y="75" width="95.546875" height="12" style="fill: transparent;"/><text xml:space="preserve" x="6" y="84" style="font-family: -apple-system, BlinkMacSystemFont, &quot;Segoe WPC&quot;, &quot;Segoe UI&quot;, Ubuntu, &quot;Droid Sans&quot;, sans-serif, &quot;PingFang SC&quot;; font-size: 9px; font-weight: normal; text-rendering: geometricprecision; user-select: none;"><title>boolean</title><tspan>benchmark</tspan><tspan> = false</tspan></text></g><g class="node-argument"><rect rx="3" ry="3" x="3" y="87" width="95.546875" height="12" style="fill: transparent;"/><text xml:space="preserve" x="6" y="96" style="font-family: -apple-system, BlinkMacSystemFont, &quot;Segoe WPC&quot;, &quot;Segoe UI&quot;, Ubuntu, &quot;Droid Sans&quot;, sans-serif, &quot;PingFang SC&quot;; font-size: 9px; font-weight: normal; text-rendering: geometricprecision; user-select: none;"><title>boolean</title><tspan>deterministic</tspan><tspan> = false</tspan></text></g><g class="node-argument"><rect rx="3" ry="3" x="3" y="99" width="95.546875" height="12" style="fill: transparent;"/><text xml:space="preserve" x="6" y="108" style="font-family: -apple-system, BlinkMacSystemFont, &quot;Segoe WPC&quot;, &quot;Segoe UI&quot;, Ubuntu, &quot;Droid Sans&quot;, sans-serif, &quot;PingFang SC&quot;; font-size: 9px; font-weight: normal; text-rendering: geometricprecision; user-select: none;"><title>boolean</title><tspan>cudnn_enabled</tspan><tspan> = true</tspan></text></g><g class="node-argument"><rect rx="3" ry="3" x="3" y="111" width="95.546875" height="12" style="fill: transparent;"/><text xml:space="preserve" x="6" y="120" style="font-family: -apple-system, BlinkMacSystemFont, &quot;Segoe WPC&quot;, &quot;Segoe UI&quot;, Ubuntu, &quot;Droid Sans&quot;, sans-serif, &quot;PingFang SC&quot;; font-size: 9px; font-weight: normal; text-rendering: geometricprecision; user-select: none;"><title>boolean</title><tspan>allow_tf32</tspan><tspan> = true</tspan></text></g><line class="node" x1="0" x2="101.546875" y1="0" y2="0" style="stroke: rgb(51, 51, 51); fill: none; stroke-width: 1px;"/></g><path class="node node-border" d="M5,0h91.546875a5,5 0 0 1 5,5v136a5,5 0 0 1 -5,5h-91.546875a5,5 0 0 1 -5,-5v-136a5,5 0 0 1 5,-5z" style="stroke: rgb(51, 51, 51); fill: none; stroke-width: 1px;"/></g><g id="node-id-21" class="node graph-node" style="" transform="translate(881.9220123291016,176)"><g class="node-item node-item-type" transform="translate(0,0)"><path d="M5,0h22.796875a5,5 0 0 1 5,5v10a5,5 0 0 1 -5,5h-22.796875a5,5 0 0 1 -5,-5v-10a5,5 0 0 1 5,-5z" style="stroke: rgb(0, 0, 0); fill: rgb(0, 0, 0); stroke-width: 0;"/><text x="6" y="13" style="font-family: -apple-system, BlinkMacSystemFont, &quot;Segoe WPC&quot;, &quot;Segoe UI&quot;, Ubuntu, &quot;Droid Sans&quot;, sans-serif, &quot;PingFang SC&quot;; font-size: 11px; text-rendering: geometricprecision; user-select: none; fill: rgb(255, 255, 255);">mul</text></g><path class="node node-border" d="M5,0h22.796875a5,5 0 0 1 5,5v10a5,5 0 0 1 -5,5h-22.796875a5,5 0 0 1 -5,-5v-10a5,5 0 0 1 5,-5z" style="stroke: rgb(51, 51, 51); fill: none; stroke-width: 1px;"/></g><g id="node-id-22" class="node graph-node" style="" transform="translate(884.1839828491211,279)"><g class="node-item node-item-type" transform="translate(0,0)"><path d="M5,0h18.272933959960938a5,5 0 0 1 5,5v10a5,5 0 0 1 -5,5h-18.272933959960938a5,5 0 0 1 -5,-5v-10a5,5 0 0 1 5,-5z" style="stroke: rgb(0, 0, 0); fill: rgb(0, 0, 0); stroke-width: 0;"/><text x="6" y="13" style="font-family: -apple-system, BlinkMacSystemFont, &quot;Segoe WPC&quot;, &quot;Segoe UI&quot;, Ubuntu, &quot;Droid Sans&quot;, sans-serif, &quot;PingFang SC&quot;; font-size: 11px; text-rendering: geometricprecision; user-select: none; fill: rgb(255, 255, 255);">Int</text></g><path class="node node-border" d="M5,0h18.272933959960938a5,5 0 0 1 5,5v10a5,5 0 0 1 -5,5h-18.272933959960938a5,5 0 0 1 -5,-5v-10a5,5 0 0 1 5,-5z" style="stroke: rgb(51, 51, 51); fill: none; stroke-width: 1px;"/></g><g id="node-id-23" class="node graph-node" style="" transform="translate(776.3343276977539,382)"><g class="node-item node-item-type" transform="translate(0,0)"><path d="M5,0h78.84300231933594a5,5 0 0 1 5,5v15a0,0 0 0 1 0,0h-88.84300231933594a0,0 0 0 1 0,0v-15a5,5 0 0 1 5,-5z" style="stroke: rgb(0, 0, 0); fill: rgb(0, 0, 0); stroke-width: 0;"/><text x="6" y="13" style="font-family: -apple-system, BlinkMacSystemFont, &quot;Segoe WPC&quot;, &quot;Segoe UI&quot;, Ubuntu, &quot;Droid Sans&quot;, sans-serif, &quot;PingFang SC&quot;; font-size: 11px; text-rendering: geometricprecision; user-select: none; fill: rgb(255, 255, 255);">view</text></g><g class="node-argument-list" transform="translate(0,20)"><path d="M0,0h88.84300231933594a0,0 0 0 1 0,0v13a5,5 0 0 1 -5,5h-78.84300231933594a5,5 0 0 1 -5,-5v-13a0,0 0 0 1 0,0z" style="stroke: rgb(0, 0, 0); fill: rgb(255, 255, 255); stroke-width: 0;"/><g class="node-argument"><rect rx="3" ry="3" x="3" y="3" width="82.84300231933594" height="12" style="fill: transparent;"/><text xml:space="preserve" x="6" y="12" style="font-family: -apple-system, BlinkMacSystemFont, &quot;Segoe WPC&quot;, &quot;Segoe UI&quot;, Ubuntu, &quot;Droid Sans&quot;, sans-serif, &quot;PingFang SC&quot;; font-size: 9px; font-weight: normal; text-rendering: geometricprecision; user-select: none;"><title>int64[]</title><tspan>size</tspan><tspan> = {%22}, -1, {</tspan></text></g><line class="node" x1="0" x2="88.84300231933594" y1="0" y2="0" style="stroke: rgb(51, 51, 51); fill: none; stroke-width: 1px;"/></g><path class="node node-border" d="M5,0h78.84300231933594a5,5 0 0 1 5,5v28a5,5 0 0 1 -5,5h-78.84300231933594a5,5 0 0 1 -5,-5v-28a5,5 0 0 1 5,-5z" style="stroke: rgb(51, 51, 51); fill: none; stroke-width: 1px;"/></g><g id="node-id-24" class="node graph-node" style="" transform="translate(691.9985198974609,498)"><g class="node-item node-item-type" transform="translate(0,0)"><path d="M5,0h29.421875a5,5 0 0 1 5,5v10a5,5 0 0 1 -5,5h-29.421875a5,5 0 0 1 -5,-5v-10a5,5 0 0 1 5,-5z" style="stroke: rgb(0, 0, 0); fill: rgb(0, 0, 0); stroke-width: 0;"/><text x="6" y="13" style="font-family: -apple-system, BlinkMacSystemFont, &quot;Segoe WPC&quot;, &quot;Segoe UI&quot;, Ubuntu, &quot;Droid Sans&quot;, sans-serif, &quot;PingFang SC&quot;; font-size: 11px; text-rendering: geometricprecision; user-select: none; fill: rgb(255, 255, 255);">bmm</text></g><path class="node node-border" d="M5,0h29.421875a5,5 0 0 1 5,5v10a5,5 0 0 1 -5,5h-29.421875a5,5 0 0 1 -5,-5v-10a5,5 0 0 1 5,-5z" style="stroke: rgb(51, 51, 51); fill: none; stroke-width: 1px;"/></g><g id="node-id-25" class="node graph-node" style="" transform="translate(674.2094573974609,538)"><g class="node-item node-item-type node-item-type-activation" transform="translate(0,0)"><path d="M5,0h65a5,5 0 0 1 5,5v15a0,0 0 0 1 0,0h-75a0,0 0 0 1 0,0v-15a5,5 0 0 1 5,-5z" style="stroke: rgb(0, 0, 0); fill: rgb(112, 41, 33); stroke-width: 0;"/><text x="6" y="13" style="font-family: -apple-system, BlinkMacSystemFont, &quot;Segoe WPC&quot;, &quot;Segoe UI&quot;, Ubuntu, &quot;Droid Sans&quot;, sans-serif, &quot;PingFang SC&quot;; font-size: 11px; text-rendering: geometricprecision; user-select: none; fill: rgb(255, 255, 255);">softmax</text></g><g class="node-argument-list" transform="translate(0,20)"><path d="M0,0h75a0,0 0 0 1 0,0v25a5,5 0 0 1 -5,5h-65a5,5 0 0 1 -5,-5v-25a0,0 0 0 1 0,0z" style="stroke: rgb(0, 0, 0); fill: rgb(255, 255, 255); stroke-width: 0;"/><g class="node-argument"><rect rx="3" ry="3" x="3" y="3" width="69" height="12" style="fill: transparent;"/><text xml:space="preserve" x="6" y="12" style="font-family: -apple-system, BlinkMacSystemFont, &quot;Segoe WPC&quot;, &quot;Segoe UI&quot;, Ubuntu, &quot;Droid Sans&quot;, sans-serif, &quot;PingFang SC&quot;; font-size: 9px; font-weight: normal; text-rendering: geometricprecision; user-select: none;"><title>int64</title><tspan>dim</tspan><tspan> = -1</tspan></text></g><g class="node-argument"><rect rx="3" ry="3" x="3" y="15" width="69" height="12" style="fill: transparent;"/><text xml:space="preserve" x="6" y="24" style="font-family: -apple-system, BlinkMacSystemFont, &quot;Segoe WPC&quot;, &quot;Segoe UI&quot;, Ubuntu, &quot;Droid Sans&quot;, sans-serif, &quot;PingFang SC&quot;; font-size: 9px; font-weight: normal; text-rendering: geometricprecision; user-select: none;"><title>None</title><tspan>dtype</tspan><tspan> = </tspan></text></g><line class="node" x1="0" x2="75" y1="0" y2="0" style="stroke: rgb(51, 51, 51); fill: none; stroke-width: 1px;"/></g><path class="node node-border" d="M5,0h65a5,5 0 0 1 5,5v40a5,5 0 0 1 -5,5h-65a5,5 0 0 1 -5,-5v-40a5,5 0 0 1 5,-5z" style="stroke: rgb(51, 51, 51); fill: none; stroke-width: 1px;"/></g><g id="node-id-26" class="node graph-node" style="" transform="translate(206.77088165283203,216)"><g class="node-item node-item-type node-item-type-layer" transform="translate(0,0)"><path d="M5,0h91.546875a5,5 0 0 1 5,5v15a0,0 0 0 1 0,0h-101.546875a0,0 0 0 1 0,0v-15a5,5 0 0 1 5,-5z" style="stroke: rgb(0, 0, 0); fill: rgb(51, 85, 136); stroke-width: 0;"/><text x="6" y="13" style="font-family: -apple-system, BlinkMacSystemFont, &quot;Segoe WPC&quot;, &quot;Segoe UI&quot;, Ubuntu, &quot;Droid Sans&quot;, sans-serif, &quot;PingFang SC&quot;; font-size: 11px; text-rendering: geometricprecision; user-select: none; fill: rgb(255, 255, 255);">_convolution</text></g><g class="node-argument-list" transform="translate(0,20)"><path d="M0,0h101.546875a0,0 0 0 1 0,0v121a5,5 0 0 1 -5,5h-91.546875a5,5 0 0 1 -5,-5v-121a0,0 0 0 1 0,0z" style="stroke: rgb(0, 0, 0); fill: rgb(255, 255, 255); stroke-width: 0;"/><g class="node-argument"><rect rx="3" ry="3" x="3" y="3" width="95.546875" height="12" style="fill: transparent;"/><text xml:space="preserve" x="6" y="12" style="font-family: -apple-system, BlinkMacSystemFont, &quot;Segoe WPC&quot;, &quot;Segoe UI&quot;, Ubuntu, &quot;Droid Sans&quot;, sans-serif, &quot;PingFang SC&quot;; font-size: 9px; font-weight: normal; text-rendering: geometricprecision; user-select: none;"><title>int64[]</title><tspan>stride</tspan><tspan> = 1, 1</tspan></text></g><g class="node-argument"><rect rx="3" ry="3" x="3" y="15" width="95.546875" height="12" style="fill: transparent;"/><text xml:space="preserve" x="6" y="24" style="font-family: -apple-system, BlinkMacSystemFont, &quot;Segoe WPC&quot;, &quot;Segoe UI&quot;, Ubuntu, &quot;Droid Sans&quot;, sans-serif, &quot;PingFang SC&quot;; font-size: 9px; font-weight: normal; text-rendering: geometricprecision; user-select: none;"><title>int64[]</title><tspan>padding</tspan><tspan> = 0, 0</tspan></text></g><g class="node-argument"><rect rx="3" ry="3" x="3" y="27" width="95.546875" height="12" style="fill: transparent;"/><text xml:space="preserve" x="6" y="36" style="font-family: -apple-system, BlinkMacSystemFont, &quot;Segoe WPC&quot;, &quot;Segoe UI&quot;, Ubuntu, &quot;Droid Sans&quot;, sans-serif, &quot;PingFang SC&quot;; font-size: 9px; font-weight: normal; text-rendering: geometricprecision; user-select: none;"><title>int64[]</title><tspan>dilation</tspan><tspan> = 1, 1</tspan></text></g><g class="node-argument"><rect rx="3" ry="3" x="3" y="39" width="95.546875" height="12" style="fill: transparent;"/><text xml:space="preserve" x="6" y="48" style="font-family: -apple-system, BlinkMacSystemFont, &quot;Segoe WPC&quot;, &quot;Segoe UI&quot;, Ubuntu, &quot;Droid Sans&quot;, sans-serif, &quot;PingFang SC&quot;; font-size: 9px; font-weight: normal; text-rendering: geometricprecision; user-select: none;"><title>boolean</title><tspan>transposed</tspan><tspan> = false</tspan></text></g><g class="node-argument"><rect rx="3" ry="3" x="3" y="51" width="95.546875" height="12" style="fill: transparent;"/><text xml:space="preserve" x="6" y="60" style="font-family: -apple-system, BlinkMacSystemFont, &quot;Segoe WPC&quot;, &quot;Segoe UI&quot;, Ubuntu, &quot;Droid Sans&quot;, sans-serif, &quot;PingFang SC&quot;; font-size: 9px; font-weight: normal; text-rendering: geometricprecision; user-select: none;"><title>int64[]</title><tspan>output_padding</tspan><tspan> = 0, 0</tspan></text></g><g class="node-argument"><rect rx="3" ry="3" x="3" y="63" width="95.546875" height="12" style="fill: transparent;"/><text xml:space="preserve" x="6" y="72" style="font-family: -apple-system, BlinkMacSystemFont, &quot;Segoe WPC&quot;, &quot;Segoe UI&quot;, Ubuntu, &quot;Droid Sans&quot;, sans-serif, &quot;PingFang SC&quot;; font-size: 9px; font-weight: normal; text-rendering: geometricprecision; user-select: none;"><title>int64</title><tspan>groups</tspan><tspan> = 1</tspan></text></g><g class="node-argument"><rect rx="3" ry="3" x="3" y="75" width="95.546875" height="12" style="fill: transparent;"/><text xml:space="preserve" x="6" y="84" style="font-family: -apple-system, BlinkMacSystemFont, &quot;Segoe WPC&quot;, &quot;Segoe UI&quot;, Ubuntu, &quot;Droid Sans&quot;, sans-serif, &quot;PingFang SC&quot;; font-size: 9px; font-weight: normal; text-rendering: geometricprecision; user-select: none;"><title>boolean</title><tspan>benchmark</tspan><tspan> = false</tspan></text></g><g class="node-argument"><rect rx="3" ry="3" x="3" y="87" width="95.546875" height="12" style="fill: transparent;"/><text xml:space="preserve" x="6" y="96" style="font-family: -apple-system, BlinkMacSystemFont, &quot;Segoe WPC&quot;, &quot;Segoe UI&quot;, Ubuntu, &quot;Droid Sans&quot;, sans-serif, &quot;PingFang SC&quot;; font-size: 9px; font-weight: normal; text-rendering: geometricprecision; user-select: none;"><title>boolean</title><tspan>deterministic</tspan><tspan> = false</tspan></text></g><g class="node-argument"><rect rx="3" ry="3" x="3" y="99" width="95.546875" height="12" style="fill: transparent;"/><text xml:space="preserve" x="6" y="108" style="font-family: -apple-system, BlinkMacSystemFont, &quot;Segoe WPC&quot;, &quot;Segoe UI&quot;, Ubuntu, &quot;Droid Sans&quot;, sans-serif, &quot;PingFang SC&quot;; font-size: 9px; font-weight: normal; text-rendering: geometricprecision; user-select: none;"><title>boolean</title><tspan>cudnn_enabled</tspan><tspan> = true</tspan></text></g><g class="node-argument"><rect rx="3" ry="3" x="3" y="111" width="95.546875" height="12" style="fill: transparent;"/><text xml:space="preserve" x="6" y="120" style="font-family: -apple-system, BlinkMacSystemFont, &quot;Segoe WPC&quot;, &quot;Segoe UI&quot;, Ubuntu, &quot;Droid Sans&quot;, sans-serif, &quot;PingFang SC&quot;; font-size: 9px; font-weight: normal; text-rendering: geometricprecision; user-select: none;"><title>boolean</title><tspan>allow_tf32</tspan><tspan> = true</tspan></text></g><line class="node" x1="0" x2="101.546875" y1="0" y2="0" style="stroke: rgb(51, 51, 51); fill: none; stroke-width: 1px;"/></g><path class="node node-border" d="M5,0h91.546875a5,5 0 0 1 5,5v136a5,5 0 0 1 -5,5h-91.546875a5,5 0 0 1 -5,-5v-136a5,5 0 0 1 5,-5z" style="stroke: rgb(51, 51, 51); fill: none; stroke-width: 1px;"/></g><g id="node-id-27" class="node graph-node" style="" transform="translate(453.0818099975586,176)"><g class="node-item node-item-type" transform="translate(0,0)"><path d="M5,0h22.796875a5,5 0 0 1 5,5v10a5,5 0 0 1 -5,5h-22.796875a5,5 0 0 1 -5,-5v-10a5,5 0 0 1 5,-5z" style="stroke: rgb(0, 0, 0); fill: rgb(0, 0, 0); stroke-width: 0;"/><text x="6" y="13" style="font-family: -apple-system, BlinkMacSystemFont, &quot;Segoe WPC&quot;, &quot;Segoe UI&quot;, Ubuntu, &quot;Droid Sans&quot;, sans-serif, &quot;PingFang SC&quot;; font-size: 11px; text-rendering: geometricprecision; user-select: none; fill: rgb(255, 255, 255);">mul</text></g><path class="node node-border" d="M5,0h22.796875a5,5 0 0 1 5,5v10a5,5 0 0 1 -5,5h-22.796875a5,5 0 0 1 -5,-5v-10a5,5 0 0 1 5,-5z" style="stroke: rgb(51, 51, 51); fill: none; stroke-width: 1px;"/></g><g id="node-id-28" class="node graph-node" style="" transform="translate(437.99849700927734,279)"><g class="node-item node-item-type" transform="translate(0,0)"><path d="M5,0h18.272933959960938a5,5 0 0 1 5,5v10a5,5 0 0 1 -5,5h-18.272933959960938a5,5 0 0 1 -5,-5v-10a5,5 0 0 1 5,-5z" style="stroke: rgb(0, 0, 0); fill: rgb(0, 0, 0); stroke-width: 0;"/><text x="6" y="13" style="font-family: -apple-system, BlinkMacSystemFont, &quot;Segoe WPC&quot;, &quot;Segoe UI&quot;, Ubuntu, &quot;Droid Sans&quot;, sans-serif, &quot;PingFang SC&quot;; font-size: 11px; text-rendering: geometricprecision; user-select: none; fill: rgb(255, 255, 255);">Int</text></g><path class="node node-border" d="M5,0h18.272933959960938a5,5 0 0 1 5,5v10a5,5 0 0 1 -5,5h-18.272933959960938a5,5 0 0 1 -5,-5v-10a5,5 0 0 1 5,-5z" style="stroke: rgb(51, 51, 51); fill: none; stroke-width: 1px;"/></g><g id="node-id-29" class="node graph-node" style="" transform="translate(294.28763580322266,382)"><g class="node-item node-item-type" transform="translate(0,0)"><path d="M5,0h78.84300231933594a5,5 0 0 1 5,5v15a0,0 0 0 1 0,0h-88.84300231933594a0,0 0 0 1 0,0v-15a5,5 0 0 1 5,-5z" style="stroke: rgb(0, 0, 0); fill: rgb(0, 0, 0); stroke-width: 0;"/><text x="6" y="13" style="font-family: -apple-system, BlinkMacSystemFont, &quot;Segoe WPC&quot;, &quot;Segoe UI&quot;, Ubuntu, &quot;Droid Sans&quot;, sans-serif, &quot;PingFang SC&quot;; font-size: 11px; text-rendering: geometricprecision; user-select: none; fill: rgb(255, 255, 255);">view</text></g><g class="node-argument-list" transform="translate(0,20)"><path d="M0,0h88.84300231933594a0,0 0 0 1 0,0v13a5,5 0 0 1 -5,5h-78.84300231933594a5,5 0 0 1 -5,-5v-13a0,0 0 0 1 0,0z" style="stroke: rgb(0, 0, 0); fill: rgb(255, 255, 255); stroke-width: 0;"/><g class="node-argument"><rect rx="3" ry="3" x="3" y="3" width="82.84300231933594" height="12" style="fill: transparent;"/><text xml:space="preserve" x="6" y="12" style="font-family: -apple-system, BlinkMacSystemFont, &quot;Segoe WPC&quot;, &quot;Segoe UI&quot;, Ubuntu, &quot;Droid Sans&quot;, sans-serif, &quot;PingFang SC&quot;; font-size: 9px; font-weight: normal; text-rendering: geometricprecision; user-select: none;"><title>int64[]</title><tspan>size</tspan><tspan> = {%19}, -1, {</tspan></text></g><line class="node" x1="0" x2="88.84300231933594" y1="0" y2="0" style="stroke: rgb(51, 51, 51); fill: none; stroke-width: 1px;"/></g><path class="node node-border" d="M5,0h78.84300231933594a5,5 0 0 1 5,5v28a5,5 0 0 1 -5,5h-78.84300231933594a5,5 0 0 1 -5,-5v-28a5,5 0 0 1 5,-5z" style="stroke: rgb(51, 51, 51); fill: none; stroke-width: 1px;"/></g><g id="node-id-30" class="node graph-node" style="" transform="translate(674.2094573974609,608)"><g class="node-item node-item-type node-item-type-shape" transform="translate(0,0)"><path d="M5,0h65a5,5 0 0 1 5,5v15a0,0 0 0 1 0,0h-75a0,0 0 0 1 0,0v-15a5,5 0 0 1 5,-5z" style="stroke: rgb(0, 0, 0); fill: rgb(108, 79, 71); stroke-width: 0;"/><text x="6" y="13" style="font-family: -apple-system, BlinkMacSystemFont, &quot;Segoe WPC&quot;, &quot;Segoe UI&quot;, Ubuntu, &quot;Droid Sans&quot;, sans-serif, &quot;PingFang SC&quot;; font-size: 11px; text-rendering: geometricprecision; user-select: none; fill: rgb(255, 255, 255);">permute</text></g><g class="node-argument-list" transform="translate(0,20)"><path d="M0,0h75a0,0 0 0 1 0,0v13a5,5 0 0 1 -5,5h-65a5,5 0 0 1 -5,-5v-13a0,0 0 0 1 0,0z" style="stroke: rgb(0, 0, 0); fill: rgb(255, 255, 255); stroke-width: 0;"/><g class="node-argument"><rect rx="3" ry="3" x="3" y="3" width="69" height="12" style="fill: transparent;"/><text xml:space="preserve" x="6" y="12" style="font-family: -apple-system, BlinkMacSystemFont, &quot;Segoe WPC&quot;, &quot;Segoe UI&quot;, Ubuntu, &quot;Droid Sans&quot;, sans-serif, &quot;PingFang SC&quot;; font-size: 9px; font-weight: normal; text-rendering: geometricprecision; user-select: none;"><title>int64[]</title><tspan>dims</tspan><tspan> = 0, 2, 1</tspan></text></g><line class="node" x1="0" x2="75" y1="0" y2="0" style="stroke: rgb(51, 51, 51); fill: none; stroke-width: 1px;"/></g><path class="node node-border" d="M5,0h65a5,5 0 0 1 5,5v28a5,5 0 0 1 -5,5h-65a5,5 0 0 1 -5,-5v-28a5,5 0 0 1 5,-5z" style="stroke: rgb(51, 51, 51); fill: none; stroke-width: 1px;"/></g><g id="node-id-31" class="node graph-node" style="" transform="translate(575.5667304992676,666)"><g class="node-item node-item-type" transform="translate(0,0)"><path d="M5,0h29.421875a5,5 0 0 1 5,5v10a5,5 0 0 1 -5,5h-29.421875a5,5 0 0 1 -5,-5v-10a5,5 0 0 1 5,-5z" style="stroke: rgb(0, 0, 0); fill: rgb(0, 0, 0); stroke-width: 0;"/><text x="6" y="13" style="font-family: -apple-system, BlinkMacSystemFont, &quot;Segoe WPC&quot;, &quot;Segoe UI&quot;, Ubuntu, &quot;Droid Sans&quot;, sans-serif, &quot;PingFang SC&quot;; font-size: 11px; text-rendering: geometricprecision; user-select: none; fill: rgb(255, 255, 255);">bmm</text></g><path class="node node-border" d="M5,0h29.421875a5,5 0 0 1 5,5v10a5,5 0 0 1 -5,5h-29.421875a5,5 0 0 1 -5,-5v-10a5,5 0 0 1 5,-5z" style="stroke: rgb(51, 51, 51); fill: none; stroke-width: 1px;"/></g><g id="node-id-32" class="node graph-node" style="" transform="translate(79.94512557983398,706)"><g class="node-item node-item-type" transform="translate(0,0)"><path d="M5,0h87.65406799316406a5,5 0 0 1 5,5v15a0,0 0 0 1 0,0h-97.65406799316406a0,0 0 0 1 0,0v-15a5,5 0 0 1 5,-5z" style="stroke: rgb(0, 0, 0); fill: rgb(0, 0, 0); stroke-width: 0;"/><text x="6" y="13" style="font-family: -apple-system, BlinkMacSystemFont, &quot;Segoe WPC&quot;, &quot;Segoe UI&quot;, Ubuntu, &quot;Droid Sans&quot;, sans-serif, &quot;PingFang SC&quot;; font-size: 11px; text-rendering: geometricprecision; user-select: none; fill: rgb(255, 255, 255);">view</text></g><g class="node-argument-list" transform="translate(0,20)"><path d="M0,0h97.65406799316406a0,0 0 0 1 0,0v13a5,5 0 0 1 -5,5h-87.65406799316406a5,5 0 0 1 -5,-5v-13a0,0 0 0 1 0,0z" style="stroke: rgb(0, 0, 0); fill: rgb(255, 255, 255); stroke-width: 0;"/><g class="node-argument"><rect rx="3" ry="3" x="3" y="3" width="91.65406799316406" height="12" style="fill: transparent;"/><text xml:space="preserve" x="6" y="12" style="font-family: -apple-system, BlinkMacSystemFont, &quot;Segoe WPC&quot;, &quot;Segoe UI&quot;, Ubuntu, &quot;Droid Sans&quot;, sans-serif, &quot;PingFang SC&quot;; font-size: 9px; font-weight: normal; text-rendering: geometricprecision; user-select: none;"><title>int64[]</title><tspan>size</tspan><tspan> = {%16}, {%32}</tspan></text></g><line class="node" x1="0" x2="97.65406799316406" y1="0" y2="0" style="stroke: rgb(51, 51, 51); fill: none; stroke-width: 1px;"/></g><path class="node node-border" d="M5,0h87.65406799316406a5,5 0 0 1 5,5v28a5,5 0 0 1 -5,5h-87.65406799316406a5,5 0 0 1 -5,-5v-28a5,5 0 0 1 5,-5z" style="stroke: rgb(51, 51, 51); fill: none; stroke-width: 1px;"/></g><g id="node-id-33" class="node graph-node" style="" transform="translate(112.37372207641602,764)"><g class="node-item node-item-type" transform="translate(0,0)"><path d="M5,0h22.796875a5,5 0 0 1 5,5v10a5,5 0 0 1 -5,5h-22.796875a5,5 0 0 1 -5,-5v-10a5,5 0 0 1 5,-5z" style="stroke: rgb(0, 0, 0); fill: rgb(0, 0, 0); stroke-width: 0;"/><text x="6" y="13" style="font-family: -apple-system, BlinkMacSystemFont, &quot;Segoe WPC&quot;, &quot;Segoe UI&quot;, Ubuntu, &quot;Droid Sans&quot;, sans-serif, &quot;PingFang SC&quot;; font-size: 11px; text-rendering: geometricprecision; user-select: none; fill: rgb(255, 255, 255);">mul</text></g><path class="node node-border" d="M5,0h22.796875a5,5 0 0 1 5,5v10a5,5 0 0 1 -5,5h-22.796875a5,5 0 0 1 -5,-5v-10a5,5 0 0 1 5,-5z" style="stroke: rgb(51, 51, 51); fill: none; stroke-width: 1px;"/></g><g id="node-id-34" class="node graph-node" style="" transform="translate(43.113555908203125,804)"><g class="node-item node-item-type" transform="translate(0,0)"><path d="M5,0h65a5,5 0 0 1 5,5v15a0,0 0 0 1 0,0h-75a0,0 0 0 1 0,0v-15a5,5 0 0 1 5,-5z" style="stroke: rgb(0, 0, 0); fill: rgb(0, 0, 0); stroke-width: 0;"/><text x="6" y="13" style="font-family: -apple-system, BlinkMacSystemFont, &quot;Segoe WPC&quot;, &quot;Segoe UI&quot;, Ubuntu, &quot;Droid Sans&quot;, sans-serif, &quot;PingFang SC&quot;; font-size: 11px; text-rendering: geometricprecision; user-select: none; fill: rgb(255, 255, 255);">add</text></g><g class="node-argument-list" transform="translate(0,20)"><path d="M0,0h75a0,0 0 0 1 0,0v13a5,5 0 0 1 -5,5h-65a5,5 0 0 1 -5,-5v-13a0,0 0 0 1 0,0z" style="stroke: rgb(0, 0, 0); fill: rgb(255, 255, 255); stroke-width: 0;"/><g class="node-argument"><rect rx="3" ry="3" x="3" y="3" width="69" height="12" style="fill: transparent;"/><text xml:space="preserve" x="6" y="12" style="font-family: -apple-system, BlinkMacSystemFont, &quot;Segoe WPC&quot;, &quot;Segoe UI&quot;, Ubuntu, &quot;Droid Sans&quot;, sans-serif, &quot;PingFang SC&quot;; font-size: 9px; font-weight: normal; text-rendering: geometricprecision; user-select: none;"><title>int64</title><tspan>alpha</tspan><tspan> = 1</tspan></text></g><line class="node" x1="0" x2="75" y1="0" y2="0" style="stroke: rgb(51, 51, 51); fill: none; stroke-width: 1px;"/></g><path class="node node-border" d="M5,0h65a5,5 0 0 1 5,5v28a5,5 0 0 1 -5,5h-65a5,5 0 0 1 -5,-5v-28a5,5 0 0 1 5,-5z" style="stroke: rgb(51, 51, 51); fill: none; stroke-width: 1px;"/></g><g class="node" style="" transform="translate(59.582305908203125,862)"><g class="node-item graph-item-output" transform="translate(0,0)"><path d="M5,0h32.0625a5,5 0 0 1 5,5v10a5,5 0 0 1 -5,5h-32.0625a5,5 0 0 1 -5,-5v-10a5,5 0 0 1 5,-5z" style="stroke: rgb(0, 0, 0); fill: rgb(238, 238, 238); stroke-width: 0;"/><text x="6" y="13" style="font-family: -apple-system, BlinkMacSystemFont, &quot;Segoe WPC&quot;, &quot;Segoe UI&quot;, Ubuntu, &quot;Droid Sans&quot;, sans-serif, &quot;PingFang SC&quot;; font-size: 11px; text-rendering: geometricprecision; user-select: none;">%107</text></g><path class="node node-border" d="M5,0h32.0625a5,5 0 0 1 5,5v10a5,5 0 0 1 -5,5h-32.0625a5,5 0 0 1 -5,-5v-10a5,5 0 0 1 5,-5z" style="stroke: rgb(51, 51, 51); fill: none; stroke-width: 1px;"/></g></g></g></svg>